<svg width="542" height="33" viewBox="0 0 542 33" fill="none" xmlns="http://www.w3.org/2000/svg">
<rect x="0.5" y="0.5" width="541" height="32" rx="3.5" stroke="#CFCFCF"/>
<path d="M14.84 21V12.36H19.802V13.242H15.722V16.242H19.082V17.118H15.722V21H14.84ZM20.8869 21V14.52H21.6789V16.08L21.5229 15.876C21.5949 15.684 21.6889 15.508 21.8049 15.348C21.9209 15.184 22.0469 15.05 22.1829 14.946C22.3509 14.798 22.5469 14.686 22.7709 14.61C22.9949 14.53 23.2209 14.484 23.4489 14.472C23.6769 14.456 23.8849 14.472 24.0729 14.52V15.348C23.8369 15.288 23.5789 15.274 23.2989 15.306C23.0189 15.338 22.7609 15.45 22.5249 15.642C22.3089 15.81 22.1469 16.012 22.0389 16.248C21.9309 16.48 21.8589 16.728 21.8229 16.992C21.7869 17.252 21.7689 17.51 21.7689 17.766V21H20.8869ZM27.8359 21.18C27.2039 21.18 26.6559 21.04 26.1919 20.76C25.7319 20.48 25.3739 20.086 25.1179 19.578C24.8619 19.07 24.7339 18.474 24.7339 17.79C24.7339 17.082 24.8599 16.47 25.1119 15.954C25.3639 15.438 25.7179 15.04 26.1739 14.76C26.6339 14.48 27.1759 14.34 27.7999 14.34C28.4399 14.34 28.9859 14.488 29.4379 14.784C29.8899 15.076 30.2319 15.496 30.4639 16.044C30.6959 16.592 30.8019 17.246 30.7819 18.006H29.8819V17.694C29.8659 16.854 29.6839 16.22 29.3359 15.792C28.9919 15.364 28.4879 15.15 27.8239 15.15C27.1279 15.15 26.5939 15.376 26.2219 15.828C25.8539 16.28 25.6699 16.924 25.6699 17.76C25.6699 18.576 25.8539 19.21 26.2219 19.662C26.5939 20.11 27.1199 20.334 27.7999 20.334C28.2639 20.334 28.6679 20.228 29.0119 20.016C29.3599 19.8 29.6339 19.49 29.8339 19.086L30.6559 19.404C30.3999 19.968 30.0219 20.406 29.5219 20.718C29.0259 21.026 28.4639 21.18 27.8359 21.18ZM25.3579 18.006V17.268H30.3079V18.006H25.3579ZM34.8554 21.18C34.2234 21.18 33.6754 21.04 33.2114 20.76C32.7514 20.48 32.3934 20.086 32.1374 19.578C31.8814 19.07 31.7534 18.474 31.7534 17.79C31.7534 17.082 31.8794 16.47 32.1314 15.954C32.3834 15.438 32.7374 15.04 33.1934 14.76C33.6534 14.48 34.1954 14.34 34.8194 14.34C35.4594 14.34 36.0054 14.488 36.4574 14.784C36.9094 15.076 37.2514 15.496 37.4834 16.044C37.7154 16.592 37.8214 17.246 37.8014 18.006H36.9014V17.694C36.8854 16.854 36.7034 16.22 36.3554 15.792C36.0114 15.364 35.5074 15.15 34.8434 15.15C34.1474 15.15 33.6134 15.376 33.2414 15.828C32.8734 16.28 32.6894 16.924 32.6894 17.76C32.6894 18.576 32.8734 19.21 33.2414 19.662C33.6134 20.11 34.1394 20.334 34.8194 20.334C35.2834 20.334 35.6874 20.228 36.0314 20.016C36.3794 19.8 36.6534 19.49 36.8534 19.086L37.6754 19.404C37.4194 19.968 37.0414 20.406 36.5414 20.718C36.0454 21.026 35.4834 21.18 34.8554 21.18ZM32.3774 18.006V17.268H37.3274V18.006H32.3774ZM44.5353 21.18C43.9313 21.18 43.3873 21.08 42.9033 20.88C42.4233 20.676 42.0253 20.388 41.7093 20.016C41.3973 19.644 41.1933 19.202 41.0973 18.69L41.9973 18.54C42.1413 19.1 42.4453 19.54 42.9093 19.86C43.3733 20.176 43.9273 20.334 44.5713 20.334C44.9953 20.334 45.3753 20.268 45.7113 20.136C46.0473 20 46.3113 19.808 46.5033 19.56C46.6953 19.312 46.7913 19.018 46.7913 18.678C46.7913 18.454 46.7513 18.264 46.6713 18.108C46.5913 17.948 46.4853 17.816 46.3533 17.712C46.2213 17.608 46.0773 17.522 45.9213 17.454C45.7653 17.382 45.6133 17.324 45.4653 17.28L43.2753 16.626C43.0113 16.55 42.7673 16.454 42.5433 16.338C42.3193 16.218 42.1233 16.076 41.9553 15.912C41.7913 15.744 41.6633 15.548 41.5713 15.324C41.4793 15.1 41.4333 14.844 41.4333 14.556C41.4333 14.068 41.5613 13.646 41.8173 13.29C42.0733 12.934 42.4233 12.66 42.8673 12.468C43.3113 12.276 43.8173 12.182 44.3853 12.186C44.9613 12.186 45.4753 12.288 45.9273 12.492C46.3833 12.696 46.7593 12.988 47.0553 13.368C47.3513 13.744 47.5473 14.19 47.6433 14.706L46.7193 14.874C46.6593 14.498 46.5213 14.172 46.3053 13.896C46.0893 13.62 45.8133 13.408 45.4773 13.26C45.1453 13.108 44.7793 13.03 44.3793 13.026C43.9913 13.026 43.6453 13.092 43.3413 13.224C43.0413 13.352 42.8033 13.528 42.6273 13.752C42.4513 13.976 42.3633 14.232 42.3633 14.52C42.3633 14.812 42.4433 15.046 42.6033 15.222C42.7673 15.398 42.9673 15.536 43.2033 15.636C43.4433 15.736 43.6753 15.818 43.8993 15.882L45.5913 16.38C45.7673 16.428 45.9733 16.498 46.2093 16.59C46.4493 16.678 46.6813 16.806 46.9053 16.974C47.1333 17.138 47.3213 17.354 47.4693 17.622C47.6173 17.89 47.6913 18.23 47.6913 18.642C47.6913 19.042 47.6113 19.4 47.4513 19.716C47.2953 20.032 47.0733 20.298 46.7853 20.514C46.5013 20.73 46.1673 20.894 45.7833 21.006C45.4033 21.122 44.9873 21.18 44.5353 21.18ZM53.6098 21V17.694C53.6098 17.334 53.5758 17.004 53.5078 16.704C53.4398 16.4 53.3298 16.136 53.1778 15.912C53.0298 15.684 52.8358 15.508 52.5958 15.384C52.3598 15.26 52.0718 15.198 51.7318 15.198C51.4198 15.198 51.1438 15.252 50.9038 15.36C50.6678 15.468 50.4678 15.624 50.3038 15.828C50.1438 16.028 50.0218 16.272 49.9378 16.56C49.8538 16.848 49.8118 17.176 49.8118 17.544L49.1878 17.406C49.1878 16.742 49.3038 16.184 49.5358 15.732C49.7678 15.28 50.0878 14.938 50.4958 14.706C50.9038 14.474 51.3718 14.358 51.8998 14.358C52.2878 14.358 52.6258 14.418 52.9138 14.538C53.2058 14.658 53.4518 14.82 53.6518 15.024C53.8558 15.228 54.0198 15.462 54.1438 15.726C54.2678 15.986 54.3578 16.264 54.4138 16.56C54.4698 16.852 54.4978 17.144 54.4978 17.436V21H53.6098ZM48.9238 21V12.36H49.7218V17.238H49.8118V21H48.9238ZM56.1748 13.29V12.3H57.0568V13.29H56.1748ZM56.1748 21V14.52H57.0568V21H56.1748ZM61.7656 21.18C61.1696 21.18 60.6656 21.03 60.2536 20.73C59.8416 20.426 59.5296 20.016 59.3176 19.5C59.1056 18.98 58.9996 18.398 58.9996 17.754C58.9996 17.098 59.1056 16.514 59.3176 16.002C59.5336 15.486 59.8496 15.08 60.2656 14.784C60.6816 14.488 61.1936 14.34 61.8016 14.34C62.3936 14.34 62.9016 14.49 63.3256 14.79C63.7496 15.09 64.0736 15.498 64.2976 16.014C64.5256 16.53 64.6396 17.11 64.6396 17.754C64.6396 18.402 64.5256 18.984 64.2976 19.5C64.0696 20.016 63.7416 20.426 63.3136 20.73C62.8856 21.03 62.3696 21.18 61.7656 21.18ZM58.8496 23.88V14.52H59.6416V19.398H59.7376V23.88H58.8496ZM61.6756 20.358C62.1276 20.358 62.5036 20.244 62.8036 20.016C63.1036 19.788 63.3276 19.478 63.4756 19.086C63.6276 18.69 63.7036 18.246 63.7036 17.754C63.7036 17.266 63.6296 16.826 63.4816 16.434C63.3336 16.042 63.1076 15.732 62.8036 15.504C62.5036 15.276 62.1216 15.162 61.6576 15.162C61.2056 15.162 60.8296 15.272 60.5296 15.492C60.2336 15.712 60.0116 16.018 59.8636 16.41C59.7156 16.798 59.6416 17.246 59.6416 17.754C59.6416 18.254 59.7156 18.702 59.8636 19.098C60.0116 19.49 60.2356 19.798 60.5356 20.022C60.8356 20.246 61.2156 20.358 61.6756 20.358ZM68.8672 21.18C68.2712 21.18 67.7672 21.03 67.3552 20.73C66.9432 20.426 66.6312 20.016 66.4192 19.5C66.2072 18.98 66.1012 18.398 66.1012 17.754C66.1012 17.098 66.2072 16.514 66.4192 16.002C66.6352 15.486 66.9512 15.08 67.3672 14.784C67.7832 14.488 68.2952 14.34 68.9032 14.34C69.4952 14.34 70.0032 14.49 70.4272 14.79C70.8512 15.09 71.1752 15.498 71.3992 16.014C71.6272 16.53 71.7412 17.11 71.7412 17.754C71.7412 18.402 71.6272 18.984 71.3992 19.5C71.1712 20.016 70.8432 20.426 70.4152 20.73C69.9872 21.03 69.4712 21.18 68.8672 21.18ZM65.9512 23.88V14.52H66.7432V19.398H66.8392V23.88H65.9512ZM68.7772 20.358C69.2292 20.358 69.6052 20.244 69.9052 20.016C70.2052 19.788 70.4292 19.478 70.5772 19.086C70.7292 18.69 70.8052 18.246 70.8052 17.754C70.8052 17.266 70.7312 16.826 70.5832 16.434C70.4352 16.042 70.2092 15.732 69.9052 15.504C69.6052 15.276 69.2232 15.162 68.7592 15.162C68.3072 15.162 67.9312 15.272 67.6312 15.492C67.3352 15.712 67.1132 16.018 66.9652 16.41C66.8172 16.798 66.7432 17.246 66.7432 17.754C66.7432 18.254 66.8172 18.702 66.9652 19.098C67.1132 19.49 67.3372 19.798 67.6372 20.022C67.9372 20.246 68.3172 20.358 68.7772 20.358ZM73.1788 13.29V12.3H74.0608V13.29H73.1788ZM73.1788 21V14.52H74.0608V21H73.1788ZM80.5395 21V17.694C80.5395 17.334 80.5055 17.004 80.4375 16.704C80.3695 16.4 80.2595 16.136 80.1075 15.912C79.9595 15.684 79.7655 15.508 79.5255 15.384C79.2895 15.26 79.0015 15.198 78.6615 15.198C78.3495 15.198 78.0735 15.252 77.8335 15.36C77.5975 15.468 77.3975 15.624 77.2335 15.828C77.0735 16.028 76.9515 16.272 76.8675 16.56C76.7835 16.848 76.7415 17.176 76.7415 17.544L76.1175 17.406C76.1175 16.742 76.2335 16.184 76.4655 15.732C76.6975 15.28 77.0175 14.938 77.4255 14.706C77.8335 14.474 78.3015 14.358 78.8295 14.358C79.2175 14.358 79.5555 14.418 79.8435 14.538C80.1355 14.658 80.3815 14.82 80.5815 15.024C80.7855 15.228 80.9495 15.462 81.0735 15.726C81.1975 15.986 81.2875 16.264 81.3435 16.56C81.3995 16.852 81.4275 17.144 81.4275 17.436V21H80.5395ZM75.8535 21V14.52H76.6515V16.116H76.7415V21H75.8535ZM85.5585 24.06C85.2265 24.06 84.8985 24.01 84.5745 23.91C84.2545 23.814 83.9585 23.66 83.6865 23.448C83.4145 23.24 83.1865 22.968 83.0025 22.632L83.8005 22.188C83.9805 22.548 84.2325 22.806 84.5565 22.962C84.8845 23.122 85.2185 23.202 85.5585 23.202C86.0265 23.202 86.4045 23.114 86.6925 22.938C86.9845 22.766 87.1965 22.51 87.3285 22.17C87.4605 21.83 87.5245 21.406 87.5205 20.898V19.17H87.6225V14.52H88.4085V20.91C88.4085 21.094 88.4025 21.27 88.3905 21.438C88.3825 21.61 88.3645 21.778 88.3365 21.942C88.2605 22.426 88.1025 22.824 87.8625 23.136C87.6265 23.448 87.3145 23.68 86.9265 23.832C86.5425 23.984 86.0865 24.06 85.5585 24.06ZM85.4985 21.18C84.8945 21.18 84.3785 21.03 83.9505 20.73C83.5225 20.426 83.1945 20.016 82.9665 19.5C82.7385 18.984 82.6245 18.402 82.6245 17.754C82.6245 17.11 82.7365 16.53 82.9605 16.014C83.1885 15.498 83.5145 15.09 83.9385 14.79C84.3625 14.49 84.8705 14.34 85.4625 14.34C86.0705 14.34 86.5825 14.488 86.9985 14.784C87.4145 15.08 87.7285 15.486 87.9405 16.002C88.1565 16.514 88.2645 17.098 88.2645 17.754C88.2645 18.398 88.1585 18.98 87.9465 19.5C87.7345 20.016 87.4225 20.426 87.0105 20.73C86.5985 21.03 86.0945 21.18 85.4985 21.18ZM85.5885 20.358C86.0485 20.358 86.4285 20.246 86.7285 20.022C87.0285 19.798 87.2525 19.49 87.4005 19.098C87.5485 18.702 87.6225 18.254 87.6225 17.754C87.6225 17.246 87.5485 16.798 87.4005 16.41C87.2525 16.018 87.0285 15.712 86.7285 15.492C86.4325 15.272 86.0585 15.162 85.6065 15.162C85.1425 15.162 84.7585 15.276 84.4545 15.504C84.1505 15.732 83.9245 16.042 83.7765 16.434C83.6325 16.826 83.5605 17.266 83.5605 17.754C83.5605 18.246 83.6345 18.69 83.7825 19.086C83.9345 19.478 84.1605 19.788 84.4605 20.016C84.7605 20.244 85.1365 20.358 85.5885 20.358Z" fill="#4D5254"/>
<line x1="106.5" y1="8.5" x2="106.5" y2="24.5" stroke="#CFCFCF"/>
<g clip-path="url(#clip0_1_133)">
<path d="M131.125 15.999H124.125C123.573 15.999 123.125 16.4467 123.125 16.999V20.499C123.125 21.0513 123.573 21.499 124.125 21.499H131.125C131.677 21.499 132.125 21.0513 132.125 20.499V16.999C132.125 16.4467 131.677 15.999 131.125 15.999Z" stroke="#696969" stroke-width="1.33333" stroke-linecap="round" stroke-linejoin="round"/>
<path d="M125.126 15.999V13.999C125.126 13.336 125.389 12.7001 125.858 12.2313C126.327 11.7624 126.963 11.499 127.626 11.499C128.289 11.499 128.925 11.7624 129.394 12.2313C129.863 12.7001 130.126 13.336 130.126 13.999V15.999" stroke="#696969" stroke-width="1.33333" stroke-linecap="round" stroke-linejoin="round"/>
</g>
<path d="M148.111 21.18C147.507 21.18 146.963 21.08 146.479 20.88C145.999 20.676 145.601 20.388 145.285 20.016C144.973 19.644 144.769 19.202 144.673 18.69L145.573 18.54C145.717 19.1 146.021 19.54 146.485 19.86C146.949 20.176 147.503 20.334 148.147 20.334C148.571 20.334 148.951 20.268 149.287 20.136C149.623 20 149.887 19.808 150.079 19.56C150.271 19.312 150.367 19.018 150.367 18.678C150.367 18.454 150.327 18.264 150.247 18.108C150.167 17.948 150.061 17.816 149.929 17.712C149.797 17.608 149.653 17.522 149.497 17.454C149.341 17.382 149.189 17.324 149.041 17.28L146.851 16.626C146.587 16.55 146.343 16.454 146.119 16.338C145.895 16.218 145.699 16.076 145.531 15.912C145.367 15.744 145.239 15.548 145.147 15.324C145.055 15.1 145.009 14.844 145.009 14.556C145.009 14.068 145.137 13.646 145.393 13.29C145.649 12.934 145.999 12.66 146.443 12.468C146.887 12.276 147.393 12.182 147.961 12.186C148.537 12.186 149.051 12.288 149.503 12.492C149.959 12.696 150.335 12.988 150.631 13.368C150.927 13.744 151.123 14.19 151.219 14.706L150.295 14.874C150.235 14.498 150.097 14.172 149.881 13.896C149.665 13.62 149.389 13.408 149.053 13.26C148.721 13.108 148.355 13.03 147.955 13.026C147.567 13.026 147.221 13.092 146.917 13.224C146.617 13.352 146.379 13.528 146.203 13.752C146.027 13.976 145.939 14.232 145.939 14.52C145.939 14.812 146.019 15.046 146.179 15.222C146.343 15.398 146.543 15.536 146.779 15.636C147.019 15.736 147.251 15.818 147.475 15.882L149.167 16.38C149.343 16.428 149.549 16.498 149.785 16.59C150.025 16.678 150.257 16.806 150.481 16.974C150.709 17.138 150.897 17.354 151.045 17.622C151.193 17.89 151.267 18.23 151.267 18.642C151.267 19.042 151.187 19.4 151.027 19.716C150.871 20.032 150.649 20.298 150.361 20.514C150.077 20.73 149.743 20.894 149.359 21.006C148.979 21.122 148.563 21.18 148.111 21.18ZM155.248 21.18C154.616 21.18 154.068 21.04 153.604 20.76C153.144 20.48 152.786 20.086 152.53 19.578C152.274 19.07 152.146 18.474 152.146 17.79C152.146 17.082 152.272 16.47 152.524 15.954C152.776 15.438 153.13 15.04 153.586 14.76C154.046 14.48 154.588 14.34 155.212 14.34C155.852 14.34 156.398 14.488 156.85 14.784C157.302 15.076 157.644 15.496 157.876 16.044C158.108 16.592 158.214 17.246 158.194 18.006H157.294V17.694C157.278 16.854 157.096 16.22 156.748 15.792C156.404 15.364 155.9 15.15 155.236 15.15C154.54 15.15 154.006 15.376 153.634 15.828C153.266 16.28 153.082 16.924 153.082 17.76C153.082 18.576 153.266 19.21 153.634 19.662C154.006 20.11 154.532 20.334 155.212 20.334C155.676 20.334 156.08 20.228 156.424 20.016C156.772 19.8 157.046 19.49 157.246 19.086L158.068 19.404C157.812 19.968 157.434 20.406 156.934 20.718C156.438 21.026 155.876 21.18 155.248 21.18ZM152.77 18.006V17.268H157.72V18.006H152.77ZM162.214 21.18C161.562 21.18 161.01 21.034 160.558 20.742C160.106 20.45 159.762 20.048 159.526 19.536C159.294 19.02 159.174 18.428 159.166 17.76C159.174 17.08 159.298 16.484 159.538 15.972C159.778 15.456 160.124 15.056 160.576 14.772C161.028 14.484 161.576 14.34 162.22 14.34C162.876 14.34 163.446 14.5 163.93 14.82C164.418 15.14 164.752 15.578 164.932 16.134L164.068 16.41C163.916 16.022 163.674 15.722 163.342 15.51C163.014 15.294 162.638 15.186 162.214 15.186C161.738 15.186 161.344 15.296 161.032 15.516C160.72 15.732 160.488 16.034 160.336 16.422C160.184 16.81 160.106 17.256 160.102 17.76C160.11 18.536 160.29 19.16 160.642 19.632C160.994 20.1 161.518 20.334 162.214 20.334C162.654 20.334 163.028 20.234 163.336 20.034C163.648 19.83 163.884 19.534 164.044 19.146L164.932 19.41C164.692 19.986 164.34 20.426 163.876 20.73C163.412 21.03 162.858 21.18 162.214 21.18ZM168.648 21.162C168.26 21.162 167.92 21.102 167.628 20.982C167.34 20.862 167.094 20.7 166.89 20.496C166.69 20.292 166.528 20.06 166.404 19.8C166.28 19.536 166.19 19.258 166.134 18.966C166.078 18.67 166.05 18.376 166.05 18.084V14.52H166.938V17.826C166.938 18.182 166.972 18.512 167.04 18.816C167.108 19.12 167.216 19.386 167.364 19.614C167.516 19.838 167.71 20.012 167.946 20.136C168.186 20.26 168.476 20.322 168.816 20.322C169.128 20.322 169.402 20.268 169.638 20.16C169.878 20.052 170.078 19.898 170.238 19.698C170.402 19.494 170.526 19.248 170.61 18.96C170.694 18.668 170.736 18.34 170.736 17.976L171.36 18.114C171.36 18.778 171.244 19.336 171.012 19.788C170.78 20.24 170.46 20.582 170.052 20.814C169.644 21.046 169.176 21.162 168.648 21.162ZM170.826 21V19.404H170.736V14.52H171.618V21H170.826ZM173.295 21V14.52H174.087V16.08L173.931 15.876C174.003 15.684 174.097 15.508 174.213 15.348C174.329 15.184 174.455 15.05 174.591 14.946C174.759 14.798 174.955 14.686 175.179 14.61C175.403 14.53 175.629 14.484 175.857 14.472C176.085 14.456 176.293 14.472 176.481 14.52V15.348C176.245 15.288 175.987 15.274 175.707 15.306C175.427 15.338 175.169 15.45 174.933 15.642C174.717 15.81 174.555 16.012 174.447 16.248C174.339 16.48 174.267 16.728 174.231 16.992C174.195 17.252 174.177 17.51 174.177 17.766V21H173.295ZM180.244 21.18C179.612 21.18 179.064 21.04 178.6 20.76C178.14 20.48 177.782 20.086 177.526 19.578C177.27 19.07 177.142 18.474 177.142 17.79C177.142 17.082 177.268 16.47 177.52 15.954C177.772 15.438 178.126 15.04 178.582 14.76C179.042 14.48 179.584 14.34 180.208 14.34C180.848 14.34 181.394 14.488 181.846 14.784C182.298 15.076 182.64 15.496 182.872 16.044C183.104 16.592 183.21 17.246 183.19 18.006H182.29V17.694C182.274 16.854 182.092 16.22 181.744 15.792C181.4 15.364 180.896 15.15 180.232 15.15C179.536 15.15 179.002 15.376 178.63 15.828C178.262 16.28 178.078 16.924 178.078 17.76C178.078 18.576 178.262 19.21 178.63 19.662C179.002 20.11 179.528 20.334 180.208 20.334C180.672 20.334 181.076 20.228 181.42 20.016C181.768 19.8 182.042 19.49 182.242 19.086L183.064 19.404C182.808 19.968 182.43 20.406 181.93 20.718C181.434 21.026 180.872 21.18 180.244 21.18ZM177.766 18.006V17.268H182.716V18.006H177.766ZM186.684 20.994L186.69 20.19L190.596 16.662C190.932 16.358 191.154 16.07 191.262 15.798C191.374 15.522 191.43 15.234 191.43 14.934C191.43 14.578 191.346 14.256 191.178 13.968C191.01 13.68 190.784 13.452 190.5 13.284C190.216 13.112 189.898 13.026 189.546 13.026C189.178 13.026 188.85 13.114 188.562 13.29C188.274 13.466 188.046 13.698 187.878 13.986C187.714 14.274 187.634 14.588 187.638 14.928H186.738C186.738 14.404 186.862 13.934 187.11 13.518C187.358 13.102 187.694 12.776 188.118 12.54C188.542 12.3 189.022 12.18 189.558 12.18C190.082 12.18 190.552 12.304 190.968 12.552C191.388 12.796 191.718 13.128 191.958 13.548C192.202 13.964 192.324 14.428 192.324 14.94C192.324 15.3 192.28 15.618 192.192 15.894C192.108 16.166 191.974 16.42 191.79 16.656C191.61 16.888 191.38 17.128 191.1 17.376L187.632 20.508L187.494 20.148H192.324V20.994H186.684ZM196.318 21.18C195.87 21.18 195.456 21.088 195.076 20.904C194.696 20.72 194.372 20.466 194.104 20.142C193.836 19.818 193.644 19.446 193.528 19.026L194.374 18.798C194.45 19.11 194.588 19.38 194.788 19.608C194.988 19.832 195.222 20.006 195.49 20.13C195.762 20.254 196.046 20.316 196.342 20.316C196.726 20.316 197.07 20.224 197.374 20.04C197.682 19.852 197.926 19.604 198.106 19.296C198.286 18.988 198.376 18.65 198.376 18.282C198.376 17.902 198.282 17.56 198.094 17.256C197.906 16.948 197.658 16.704 197.35 16.524C197.042 16.344 196.706 16.254 196.342 16.254C195.934 16.254 195.582 16.344 195.286 16.524C194.99 16.7 194.754 16.922 194.578 17.19L193.774 16.854L194.038 12.36H198.652V13.206H194.428L194.866 12.792L194.632 16.626L194.41 16.332C194.658 16.048 194.958 15.826 195.31 15.666C195.662 15.506 196.032 15.426 196.42 15.426C196.952 15.426 197.432 15.554 197.86 15.81C198.288 16.062 198.628 16.404 198.88 16.836C199.132 17.268 199.258 17.75 199.258 18.282C199.258 18.81 199.124 19.294 198.856 19.734C198.588 20.17 198.232 20.52 197.788 20.784C197.344 21.048 196.854 21.18 196.318 21.18ZM203.616 21.18C203.076 21.18 202.584 21.05 202.14 20.79C201.7 20.526 201.348 20.17 201.084 19.722C200.824 19.27 200.694 18.762 200.694 18.198V15.204C200.694 14.624 200.824 14.108 201.084 13.656C201.344 13.2 201.698 12.842 202.146 12.582C202.598 12.318 203.11 12.186 203.682 12.186C204.174 12.186 204.63 12.294 205.05 12.51C205.474 12.726 205.82 13.028 206.088 13.416L205.41 13.974C205.226 13.686 204.982 13.456 204.678 13.284C204.374 13.112 204.042 13.026 203.682 13.026C203.278 13.026 202.918 13.124 202.602 13.32C202.286 13.516 202.038 13.774 201.858 14.094C201.678 14.41 201.588 14.754 201.588 15.126V17.01L201.366 16.758C201.618 16.362 201.948 16.042 202.356 15.798C202.768 15.554 203.216 15.432 203.7 15.432C204.236 15.432 204.718 15.56 205.146 15.816C205.574 16.068 205.914 16.41 206.166 16.842C206.418 17.274 206.544 17.758 206.544 18.294C206.544 18.826 206.41 19.31 206.142 19.746C205.878 20.182 205.524 20.53 205.08 20.79C204.64 21.05 204.152 21.18 203.616 21.18ZM203.616 20.322C203.992 20.322 204.334 20.232 204.642 20.052C204.954 19.872 205.2 19.628 205.38 19.32C205.564 19.012 205.656 18.67 205.656 18.294C205.656 17.918 205.564 17.576 205.38 17.268C205.2 16.956 204.956 16.71 204.648 16.53C204.34 16.346 203.998 16.254 203.622 16.254C203.246 16.254 202.904 16.346 202.596 16.53C202.288 16.71 202.042 16.956 201.858 17.268C201.678 17.576 201.588 17.918 201.588 18.294C201.588 18.666 201.678 19.006 201.858 19.314C202.038 19.622 202.282 19.868 202.59 20.052C202.898 20.232 203.24 20.322 203.616 20.322ZM208.015 17.598V16.842H211.615V17.598H208.015ZM213.174 21V12.36H216.51C216.994 12.36 217.416 12.46 217.776 12.66C218.136 12.86 218.416 13.13 218.616 13.47C218.816 13.806 218.916 14.178 218.916 14.586C218.916 15.05 218.792 15.464 218.544 15.828C218.296 16.188 217.964 16.438 217.548 16.578L217.536 16.284C218.096 16.444 218.536 16.724 218.856 17.124C219.176 17.524 219.336 18.008 219.336 18.576C219.336 19.076 219.23 19.508 219.018 19.872C218.806 20.232 218.508 20.51 218.124 20.706C217.74 20.902 217.294 21 216.786 21H213.174ZM214.062 20.154H216.57C216.922 20.154 217.238 20.092 217.518 19.968C217.798 19.84 218.018 19.66 218.178 19.428C218.342 19.196 218.424 18.916 218.424 18.588C218.424 18.268 218.35 17.98 218.202 17.724C218.054 17.468 217.852 17.264 217.596 17.112C217.344 16.956 217.056 16.878 216.732 16.878H214.062V20.154ZM214.062 16.044H216.504C216.78 16.044 217.032 15.982 217.26 15.858C217.488 15.73 217.668 15.556 217.8 15.336C217.936 15.116 218.004 14.862 218.004 14.574C218.004 14.166 217.862 13.834 217.578 13.578C217.298 13.322 216.94 13.194 216.504 13.194H214.062V16.044ZM220.653 13.29V12.3H221.535V13.29H220.653ZM220.653 21V14.52H221.535V21H220.653ZM226.862 21C226.498 21.076 226.138 21.106 225.782 21.09C225.43 21.074 225.114 20.998 224.834 20.862C224.558 20.726 224.348 20.514 224.204 20.226C224.088 19.986 224.024 19.744 224.012 19.5C224.004 19.252 224 18.97 224 18.654V12.72H224.876V18.618C224.876 18.89 224.878 19.118 224.882 19.302C224.89 19.482 224.932 19.642 225.008 19.782C225.152 20.05 225.38 20.21 225.692 20.262C226.008 20.314 226.398 20.302 226.862 20.226V21ZM222.614 15.276V14.52H226.862V15.276H222.614ZM233.541 21.18C232.937 21.18 232.393 21.08 231.909 20.88C231.429 20.676 231.031 20.388 230.715 20.016C230.403 19.644 230.199 19.202 230.103 18.69L231.003 18.54C231.147 19.1 231.451 19.54 231.915 19.86C232.379 20.176 232.933 20.334 233.577 20.334C234.001 20.334 234.381 20.268 234.717 20.136C235.053 20 235.317 19.808 235.509 19.56C235.701 19.312 235.797 19.018 235.797 18.678C235.797 18.454 235.757 18.264 235.677 18.108C235.597 17.948 235.491 17.816 235.359 17.712C235.227 17.608 235.083 17.522 234.927 17.454C234.771 17.382 234.619 17.324 234.471 17.28L232.281 16.626C232.017 16.55 231.773 16.454 231.549 16.338C231.325 16.218 231.129 16.076 230.961 15.912C230.797 15.744 230.669 15.548 230.577 15.324C230.485 15.1 230.439 14.844 230.439 14.556C230.439 14.068 230.567 13.646 230.823 13.29C231.079 12.934 231.429 12.66 231.873 12.468C232.317 12.276 232.823 12.182 233.391 12.186C233.967 12.186 234.481 12.288 234.933 12.492C235.389 12.696 235.765 12.988 236.061 13.368C236.357 13.744 236.553 14.19 236.649 14.706L235.725 14.874C235.665 14.498 235.527 14.172 235.311 13.896C235.095 13.62 234.819 13.408 234.483 13.26C234.151 13.108 233.785 13.03 233.385 13.026C232.997 13.026 232.651 13.092 232.347 13.224C232.047 13.352 231.809 13.528 231.633 13.752C231.457 13.976 231.369 14.232 231.369 14.52C231.369 14.812 231.449 15.046 231.609 15.222C231.773 15.398 231.973 15.536 232.209 15.636C232.449 15.736 232.681 15.818 232.905 15.882L234.597 16.38C234.773 16.428 234.979 16.498 235.215 16.59C235.455 16.678 235.687 16.806 235.911 16.974C236.139 17.138 236.327 17.354 236.475 17.622C236.623 17.89 236.697 18.23 236.697 18.642C236.697 19.042 236.617 19.4 236.457 19.716C236.301 20.032 236.079 20.298 235.791 20.514C235.507 20.73 235.173 20.894 234.789 21.006C234.409 21.122 233.993 21.18 233.541 21.18ZM241.111 21.18C240.507 21.18 239.963 21.08 239.479 20.88C238.999 20.676 238.601 20.388 238.285 20.016C237.973 19.644 237.769 19.202 237.673 18.69L238.573 18.54C238.717 19.1 239.021 19.54 239.485 19.86C239.949 20.176 240.503 20.334 241.147 20.334C241.571 20.334 241.951 20.268 242.287 20.136C242.623 20 242.887 19.808 243.079 19.56C243.271 19.312 243.367 19.018 243.367 18.678C243.367 18.454 243.327 18.264 243.247 18.108C243.167 17.948 243.061 17.816 242.929 17.712C242.797 17.608 242.653 17.522 242.497 17.454C242.341 17.382 242.189 17.324 242.041 17.28L239.851 16.626C239.587 16.55 239.343 16.454 239.119 16.338C238.895 16.218 238.699 16.076 238.531 15.912C238.367 15.744 238.239 15.548 238.147 15.324C238.055 15.1 238.009 14.844 238.009 14.556C238.009 14.068 238.137 13.646 238.393 13.29C238.649 12.934 238.999 12.66 239.443 12.468C239.887 12.276 240.393 12.182 240.961 12.186C241.537 12.186 242.051 12.288 242.503 12.492C242.959 12.696 243.335 12.988 243.631 13.368C243.927 13.744 244.123 14.19 244.219 14.706L243.295 14.874C243.235 14.498 243.097 14.172 242.881 13.896C242.665 13.62 242.389 13.408 242.053 13.26C241.721 13.108 241.355 13.03 240.955 13.026C240.567 13.026 240.221 13.092 239.917 13.224C239.617 13.352 239.379 13.528 239.203 13.752C239.027 13.976 238.939 14.232 238.939 14.52C238.939 14.812 239.019 15.046 239.179 15.222C239.343 15.398 239.543 15.536 239.779 15.636C240.019 15.736 240.251 15.818 240.475 15.882L242.167 16.38C242.343 16.428 242.549 16.498 242.785 16.59C243.025 16.678 243.257 16.806 243.481 16.974C243.709 17.138 243.897 17.354 244.045 17.622C244.193 17.89 244.267 18.23 244.267 18.642C244.267 19.042 244.187 19.4 244.027 19.716C243.871 20.032 243.649 20.298 243.361 20.514C243.077 20.73 242.743 20.894 242.359 21.006C241.979 21.122 241.563 21.18 241.111 21.18ZM245.626 21V12.36H246.508V20.154H250.612V21H245.626ZM253.44 21V12.36H258.84V13.206H254.322V16.194H258.12V17.04H254.322V20.154H258.84V21H253.44ZM264.963 21V17.694C264.963 17.334 264.929 17.004 264.861 16.704C264.793 16.4 264.683 16.136 264.531 15.912C264.383 15.684 264.189 15.508 263.949 15.384C263.713 15.26 263.425 15.198 263.085 15.198C262.773 15.198 262.497 15.252 262.257 15.36C262.021 15.468 261.821 15.624 261.657 15.828C261.497 16.028 261.375 16.272 261.291 16.56C261.207 16.848 261.165 17.176 261.165 17.544L260.541 17.406C260.541 16.742 260.657 16.184 260.889 15.732C261.121 15.28 261.441 14.938 261.849 14.706C262.257 14.474 262.725 14.358 263.253 14.358C263.641 14.358 263.979 14.418 264.267 14.538C264.559 14.658 264.805 14.82 265.005 15.024C265.209 15.228 265.373 15.462 265.497 15.726C265.621 15.986 265.711 16.264 265.767 16.56C265.823 16.852 265.851 17.144 265.851 17.436V21H264.963ZM260.277 21V14.52H261.075V16.116H261.165V21H260.277ZM270.061 21.18C269.409 21.18 268.857 21.034 268.405 20.742C267.953 20.45 267.609 20.048 267.373 19.536C267.141 19.02 267.021 18.428 267.013 17.76C267.021 17.08 267.145 16.484 267.385 15.972C267.625 15.456 267.971 15.056 268.423 14.772C268.875 14.484 269.423 14.34 270.067 14.34C270.723 14.34 271.293 14.5 271.777 14.82C272.265 15.14 272.599 15.578 272.779 16.134L271.915 16.41C271.763 16.022 271.521 15.722 271.189 15.51C270.861 15.294 270.485 15.186 270.061 15.186C269.585 15.186 269.191 15.296 268.879 15.516C268.567 15.732 268.335 16.034 268.183 16.422C268.031 16.81 267.953 17.256 267.949 17.76C267.957 18.536 268.137 19.16 268.489 19.632C268.841 20.1 269.365 20.334 270.061 20.334C270.501 20.334 270.875 20.234 271.183 20.034C271.495 19.83 271.731 19.534 271.891 19.146L272.779 19.41C272.539 19.986 272.187 20.426 271.723 20.73C271.259 21.03 270.705 21.18 270.061 21.18ZM274.018 21V14.52H274.81V16.08L274.654 15.876C274.726 15.684 274.82 15.508 274.936 15.348C275.052 15.184 275.178 15.05 275.314 14.946C275.482 14.798 275.678 14.686 275.902 14.61C276.126 14.53 276.352 14.484 276.58 14.472C276.808 14.456 277.016 14.472 277.204 14.52V15.348C276.968 15.288 276.71 15.274 276.43 15.306C276.15 15.338 275.892 15.45 275.656 15.642C275.44 15.81 275.278 16.012 275.17 16.248C275.062 16.48 274.99 16.728 274.954 16.992C274.918 17.252 274.9 17.51 274.9 17.766V21H274.018ZM279.184 23.88L280.438 20.478L280.456 21.486L277.618 14.52H278.554L280.882 20.346H280.498L282.646 14.52H283.546L280.066 23.88H279.184ZM287.498 21.18C286.902 21.18 286.398 21.03 285.986 20.73C285.574 20.426 285.262 20.016 285.05 19.5C284.838 18.98 284.732 18.398 284.732 17.754C284.732 17.098 284.838 16.514 285.05 16.002C285.266 15.486 285.582 15.08 285.998 14.784C286.414 14.488 286.926 14.34 287.534 14.34C288.126 14.34 288.634 14.49 289.058 14.79C289.482 15.09 289.806 15.498 290.03 16.014C290.258 16.53 290.372 17.11 290.372 17.754C290.372 18.402 290.258 18.984 290.03 19.5C289.802 20.016 289.474 20.426 289.046 20.73C288.618 21.03 288.102 21.18 287.498 21.18ZM284.582 23.88V14.52H285.374V19.398H285.47V23.88H284.582ZM287.408 20.358C287.86 20.358 288.236 20.244 288.536 20.016C288.836 19.788 289.06 19.478 289.208 19.086C289.36 18.69 289.436 18.246 289.436 17.754C289.436 17.266 289.362 16.826 289.214 16.434C289.066 16.042 288.84 15.732 288.536 15.504C288.236 15.276 287.854 15.162 287.39 15.162C286.938 15.162 286.562 15.272 286.262 15.492C285.966 15.712 285.744 16.018 285.596 16.41C285.448 16.798 285.374 17.246 285.374 17.754C285.374 18.254 285.448 18.702 285.596 19.098C285.744 19.49 285.968 19.798 286.268 20.022C286.568 20.246 286.948 20.358 287.408 20.358ZM295.218 21C294.854 21.076 294.494 21.106 294.138 21.09C293.786 21.074 293.47 20.998 293.19 20.862C292.914 20.726 292.704 20.514 292.56 20.226C292.444 19.986 292.38 19.744 292.368 19.5C292.36 19.252 292.356 18.97 292.356 18.654V12.72H293.232V18.618C293.232 18.89 293.234 19.118 293.238 19.302C293.246 19.482 293.288 19.642 293.364 19.782C293.508 20.05 293.736 20.21 294.048 20.262C294.364 20.314 294.754 20.302 295.218 20.226V21ZM290.97 15.276V14.52H295.218V15.276H290.97ZM296.614 13.29V12.3H297.496V13.29H296.614ZM296.614 21V14.52H297.496V21H296.614ZM302.001 21.18C301.357 21.18 300.807 21.034 300.351 20.742C299.895 20.45 299.545 20.046 299.301 19.53C299.057 19.014 298.935 18.422 298.935 17.754C298.935 17.074 299.059 16.478 299.307 15.966C299.555 15.454 299.907 15.056 300.363 14.772C300.823 14.484 301.369 14.34 302.001 14.34C302.649 14.34 303.201 14.486 303.657 14.778C304.117 15.066 304.467 15.468 304.707 15.984C304.951 16.496 305.073 17.086 305.073 17.754C305.073 18.434 304.951 19.032 304.707 19.548C304.463 20.06 304.111 20.46 303.651 20.748C303.191 21.036 302.641 21.18 302.001 21.18ZM302.001 20.334C302.721 20.334 303.257 20.096 303.609 19.62C303.961 19.14 304.137 18.518 304.137 17.754C304.137 16.97 303.959 16.346 303.603 15.882C303.251 15.418 302.717 15.186 302.001 15.186C301.517 15.186 301.117 15.296 300.801 15.516C300.489 15.732 300.255 16.034 300.099 16.422C299.947 16.806 299.871 17.25 299.871 17.754C299.871 18.534 300.051 19.16 300.411 19.632C300.771 20.1 301.301 20.334 302.001 20.334ZM311.077 21V17.694C311.077 17.334 311.043 17.004 310.975 16.704C310.907 16.4 310.797 16.136 310.645 15.912C310.497 15.684 310.303 15.508 310.063 15.384C309.827 15.26 309.539 15.198 309.199 15.198C308.887 15.198 308.611 15.252 308.371 15.36C308.135 15.468 307.935 15.624 307.771 15.828C307.611 16.028 307.489 16.272 307.405 16.56C307.321 16.848 307.279 17.176 307.279 17.544L306.655 17.406C306.655 16.742 306.771 16.184 307.003 15.732C307.235 15.28 307.555 14.938 307.963 14.706C308.371 14.474 308.839 14.358 309.367 14.358C309.755 14.358 310.093 14.418 310.381 14.538C310.673 14.658 310.919 14.82 311.119 15.024C311.323 15.228 311.487 15.462 311.611 15.726C311.735 15.986 311.825 16.264 311.881 16.56C311.937 16.852 311.965 17.144 311.965 17.436V21H311.077ZM306.391 21V14.52H307.189V16.116H307.279V21H306.391ZM313.69 21V19.974H314.716V21H313.69Z" fill="#4D5254"/>
<line x1="332.5" y1="8.5" x2="332.5" y2="24.5" stroke="#CFCFCF"/>
<g clip-path="url(#clip1_1_133)">
<path opacity="0.07" d="M370.105 9.5H349.895C348.821 9.5 348 10.2583 348 11.25V21.75C348 22.7417 348.884 23.5 349.895 23.5H370.105C371.179 23.5 372 22.7417 372 21.75V11.25C372 10.2583 371.116 9.5 370.105 9.5Z" fill="black"/>
<path d="M370.106 10.0833C370.8 10.0833 371.369 10.6083 371.369 11.25V21.75C371.369 22.3916 370.8 22.9166 370.106 22.9166H349.895C349.2 22.9166 348.632 22.3916 348.632 21.75V11.25C348.632 10.6083 349.2 10.0833 349.895 10.0833H370.106Z" fill="white"/>
<path d="M365.874 15.3917H365.685C365.432 15.975 365.242 16.2667 365.053 17.1417H366.253C366.063 16.2667 366.063 15.8584 365.874 15.3917ZM367.706 18.8334H366.632C366.569 18.8334 366.569 18.8334 366.506 18.775L366.379 18.25L366.316 18.1334H364.8C364.737 18.1334 364.674 18.1334 364.674 18.25L364.485 18.775C364.485 18.8334 364.421 18.8334 364.421 18.8334H363.095L363.221 18.5417L365.053 14.575C365.053 14.2834 365.242 14.1667 365.558 14.1667H366.506C366.569 14.1667 366.632 14.1667 366.632 14.2834L367.516 18.075C367.579 18.3084 367.642 18.4834 367.642 18.7167C367.706 18.775 367.706 18.775 367.706 18.8334ZM359.242 18.6584L359.495 17.6084C359.558 17.6084 359.621 17.6667 359.621 17.6667C360.063 17.8417 360.506 17.9584 360.948 17.9C361.074 17.9 361.263 17.8417 361.39 17.7834C361.706 17.6667 361.706 17.375 361.453 17.1417C361.327 17.025 361.137 16.9667 360.948 16.85C360.695 16.7334 360.442 16.6167 360.253 16.4417C359.495 15.8584 359.748 15.0417 360.19 14.6334C360.569 14.4 360.758 14.1667 361.263 14.1667C362.021 14.1667 362.842 14.1667 363.221 14.2834H363.285C363.221 14.6334 363.158 14.925 363.032 15.275C362.716 15.1584 362.4 15.0417 362.085 15.0417C361.895 15.0417 361.706 15.0417 361.516 15.1C361.39 15.1 361.327 15.1584 361.263 15.2167C361.137 15.3334 361.137 15.5084 361.263 15.625L361.579 15.8584C361.832 15.975 362.085 16.0917 362.274 16.2084C362.59 16.3834 362.906 16.675 362.969 17.025C363.095 17.55 362.906 18.0167 362.4 18.3667C362.085 18.6 361.958 18.7167 361.516 18.7167C360.632 18.7167 359.937 18.775 359.369 18.6C359.306 18.7167 359.306 18.7167 359.242 18.6584ZM357.032 18.8334C357.095 18.425 357.095 18.425 357.158 18.25C357.474 16.9667 357.79 15.625 358.042 14.3417C358.106 14.225 358.106 14.1667 358.232 14.1667H359.369C359.242 14.8667 359.116 15.3917 358.927 16.0334C358.737 16.9084 358.548 17.7834 358.295 18.6584C358.295 18.775 358.232 18.775 358.106 18.775M351.158 14.2834C351.158 14.225 351.285 14.1667 351.348 14.1667H353.495C353.811 14.1667 354.063 14.3417 354.127 14.6334L354.695 17.2C354.695 17.2584 354.695 17.2584 354.758 17.3167C354.758 17.2584 354.821 17.2584 354.821 17.2584L356.148 14.2834C356.085 14.225 356.148 14.1667 356.211 14.1667H357.537C357.537 14.225 357.537 14.225 357.474 14.2834L355.516 18.5417C355.453 18.6584 355.453 18.7167 355.39 18.775C355.327 18.8334 355.2 18.775 355.074 18.775H354.127C354.063 18.775 354 18.775 354 18.6584L352.99 15.0417C352.863 14.925 352.674 14.75 352.421 14.6917C352.042 14.5167 351.348 14.4 351.221 14.4L351.158 14.2834Z" fill="#142688"/>
</g>
<g clip-path="url(#clip2_1_133)">
<path opacity="0.07" d="M396.105 9.5H375.895C374.821 9.5 374 10.2583 374 11.25V21.75C374 22.7417 374.884 23.5 375.895 23.5H396.105C397.179 23.5 398 22.7417 398 21.75V11.25C398 10.2583 397.116 9.5 396.105 9.5Z" fill="black"/>
<path d="M396.106 10.0833C396.8 10.0833 397.369 10.6083 397.369 11.25V21.75C397.369 22.3916 396.8 22.9166 396.106 22.9166H375.895C375.2 22.9166 374.632 22.3916 374.632 21.75V11.25C374.632 10.6083 375.2 10.0833 375.895 10.0833H396.106Z" fill="#5A31F4"/>
<path d="M387.504 15.166C387.504 16.139 386.76 16.8332 385.722 16.8332H384.744C384.728 16.8334 384.712 16.8379 384.698 16.8462C384.685 16.8545 384.674 16.8662 384.668 16.8798C384.664 16.8889 384.662 16.8986 384.662 16.9084V18.1871C384.662 18.197 384.659 18.2069 384.655 18.216C384.651 18.2252 384.645 18.2335 384.638 18.2405C384.63 18.2475 384.621 18.253 384.611 18.2568C384.601 18.2605 384.59 18.2624 384.58 18.2623H383.895C383.873 18.2623 383.852 18.2544 383.837 18.2401C383.821 18.2259 383.813 18.2066 383.813 18.1865V13.5753C383.813 13.5602 383.817 13.5455 383.826 13.533C383.835 13.5205 383.848 13.5108 383.863 13.5053C383.873 13.5014 383.884 13.4994 383.895 13.4994H385.726C386.76 13.4994 387.504 14.1936 387.504 15.1666V15.166ZM386.65 15.166C386.65 14.6072 386.234 14.1988 385.671 14.1988H384.744C384.733 14.1988 384.722 14.2008 384.712 14.2046C384.702 14.2084 384.693 14.214 384.686 14.2211C384.678 14.2281 384.672 14.2365 384.668 14.2457C384.664 14.2549 384.662 14.2647 384.662 14.2747V16.0538C384.661 16.0638 384.664 16.0737 384.668 16.0829C384.672 16.0922 384.678 16.1005 384.686 16.1075C384.693 16.1146 384.702 16.1202 384.712 16.124C384.722 16.1278 384.733 16.1297 384.744 16.1297H385.671C386.234 16.1326 386.65 15.7243 386.65 15.166ZM387.707 17.3774C387.7 17.228 387.734 17.0793 387.805 16.945C387.876 16.8107 387.983 16.6952 388.116 16.6092C388.383 16.4248 388.8 16.3292 389.414 16.3093L390.066 16.2883V16.1116C390.066 15.7575 389.807 15.6082 389.392 15.6082C388.976 15.6082 388.713 15.7429 388.653 15.964C388.647 15.9795 388.637 15.9931 388.623 16.0026C388.608 16.0121 388.591 16.017 388.574 16.0165H387.928C387.91 16.0167 387.893 16.0116 387.879 16.0019C387.864 15.9922 387.854 15.9785 387.849 15.9628C387.845 15.9525 387.844 15.9415 387.846 15.9308C387.942 15.4069 388.417 15.0091 389.421 15.0091C390.49 15.0091 390.876 15.4658 390.876 16.3368V18.1871C390.876 18.1971 390.873 18.207 390.869 18.2162C390.865 18.2254 390.859 18.2338 390.851 18.2408C390.843 18.2477 390.834 18.2533 390.824 18.257C390.814 18.2607 390.803 18.2625 390.792 18.2623H390.142C390.12 18.2623 390.099 18.2544 390.084 18.2401C390.068 18.2259 390.06 18.2066 390.06 18.1865V18.0488C390.06 18.0374 390.056 18.0262 390.049 18.0167C390.043 18.0072 390.033 17.9999 390.021 17.9958C390.01 17.9916 389.997 17.9906 389.985 17.9929C389.973 17.9952 389.962 18.0006 389.954 18.0086C389.758 18.2034 389.443 18.344 388.939 18.344C388.197 18.344 387.707 17.9899 387.707 17.3774ZM390.066 16.9767V16.8332L389.22 16.874C388.775 16.895 388.516 17.0642 388.516 17.35C388.516 17.609 388.754 17.7525 389.169 17.7525C389.733 17.7525 390.066 17.4725 390.066 16.9767ZM391.529 19.66V19.1239C391.529 19.1127 391.532 19.1016 391.537 19.0915C391.542 19.0815 391.55 19.0726 391.56 19.0656C391.569 19.0585 391.58 19.0535 391.592 19.0508C391.604 19.048 391.616 19.0477 391.628 19.0498C391.728 19.0668 391.829 19.0755 391.93 19.0755C392.105 19.0843 392.277 19.0387 392.42 18.946C392.562 18.8533 392.667 18.7189 392.717 18.5645L392.759 18.4414C392.765 18.4248 392.765 18.4067 392.759 18.3901L391.404 15.1987C391.396 15.1812 391.396 15.1616 391.403 15.1437C391.41 15.1259 391.424 15.1112 391.442 15.1024C391.454 15.0965 391.468 15.0935 391.481 15.0937H392.138C392.155 15.0937 392.172 15.0985 392.185 15.1073C392.199 15.1162 392.21 15.1287 392.216 15.1433L393.136 17.3943C393.141 17.4095 393.152 17.4225 393.166 17.4317C393.18 17.441 393.197 17.4458 393.214 17.4457C393.232 17.4457 393.249 17.4407 393.263 17.4315C393.277 17.4223 393.288 17.4094 393.293 17.3943L394.092 15.1497C394.098 15.1342 394.108 15.1207 394.123 15.1113C394.137 15.1018 394.154 15.0969 394.172 15.0972H394.852C394.872 15.0973 394.892 15.1042 394.907 15.1166C394.922 15.1291 394.932 15.1462 394.935 15.1648C394.936 15.1773 394.935 15.1899 394.93 15.2016L393.48 18.7459C393.147 19.5702 392.575 19.7802 391.946 19.7802C391.826 19.7832 391.707 19.7703 391.591 19.7417C391.572 19.7373 391.555 19.7266 391.543 19.7117C391.532 19.6967 391.526 19.6783 391.528 19.66H391.529ZM379.412 13.2334C378.55 13.2275 377.718 13.5252 377.086 14.0658C377.059 14.0884 377.042 14.1195 377.039 14.153C377.035 14.1864 377.046 14.2199 377.068 14.2467L377.458 14.7361C377.47 14.7526 377.487 14.7663 377.506 14.7763C377.525 14.7863 377.546 14.7923 377.568 14.7938C377.59 14.7954 377.612 14.7925 377.632 14.7853C377.653 14.7782 377.671 14.7669 377.686 14.7524C377.914 14.5439 378.184 14.3793 378.481 14.2682C378.778 14.157 379.095 14.1015 379.416 14.1049C380.755 14.1049 381.454 15.0289 381.454 15.9424C381.454 16.9341 380.719 17.6329 379.663 17.6463C378.847 17.6463 378.232 17.1505 378.232 16.4948C378.233 16.329 378.274 16.1655 378.352 16.0161C378.429 15.8668 378.543 15.7353 378.682 15.6315C378.712 15.6089 378.731 15.5764 378.735 15.541C378.739 15.5056 378.728 15.4702 378.703 15.4425L378.293 14.9671C378.28 14.9525 378.265 14.9403 378.247 14.9314C378.23 14.9224 378.21 14.9168 378.19 14.915C378.17 14.9131 378.15 14.915 378.131 14.9206C378.112 14.9261 378.094 14.9352 378.079 14.9473C377.827 15.1335 377.624 15.3693 377.484 15.6373C377.344 15.9048 377.271 16.1979 377.271 16.4948C377.271 17.6236 378.316 18.5085 379.655 18.5155H379.674C381.264 18.4968 382.413 17.4165 382.413 15.9401C382.413 14.6293 381.36 13.2334 379.412 13.2334Z" fill="white"/>
</g>
<g clip-path="url(#clip3_1_133)">
<path opacity="0.07" d="M422.105 9.5H401.895C400.821 9.5 400 10.2583 400 11.25V21.75C400 22.7417 400.884 23.5 401.895 23.5H422.105C423.179 23.5 424 22.7417 424 21.75V11.25C424 10.2583 423.116 9.5 422.105 9.5Z" fill="black"/>
<path d="M422.106 10.0833C422.8 10.0833 423.369 10.6083 423.369 11.25V21.75C423.369 22.3916 422.8 22.9166 422.106 22.9166H401.895C401.2 22.9166 400.632 22.3916 400.632 21.75V11.25C400.632 10.6083 401.2 10.0833 401.895 10.0833H422.106Z" fill="white"/>
<path d="M415.094 14.3417C415.221 13.7584 415.094 13.35 414.715 13C414.337 12.5917 413.642 12.4167 412.758 12.4167H410.168C409.979 12.4167 409.852 12.5334 409.789 12.7084L408.842 18.6C408.842 18.7167 408.905 18.8334 409.031 18.8334H410.737L410.989 16.85L412.126 15.5667L415.094 14.3417Z" fill="#003087"/>
<path d="M415.095 14.3417L414.969 14.4583C414.653 16.0917 413.579 16.675 412.063 16.675H411.369C411.179 16.675 411.053 16.7917 410.99 16.9667L410.611 19.2417L410.484 19.825C410.484 19.9417 410.548 20.0583 410.674 20.0583H412C412.19 20.0583 412.316 19.9417 412.316 19.825V19.7667L412.569 18.3667V18.3083C412.569 18.1917 412.758 18.075 412.884 18.075H413.074C414.4 18.075 415.411 17.6083 415.663 16.2083C415.79 15.625 415.726 15.1583 415.411 14.8083C415.348 14.5167 415.221 14.4 415.095 14.3417Z" fill="#3086C8"/>
<path d="M414.716 14.225C414.652 14.1667 414.589 14.1667 414.526 14.1667C414.463 14.1667 414.4 14.1667 414.337 14.1083C414.147 14.05 413.895 14.05 413.642 14.05H411.747C411.684 14.05 411.621 14.05 411.621 14.1083C411.495 14.1667 411.431 14.225 411.431 14.3417L410.989 16.9083V16.9667C410.989 16.7917 411.179 16.675 411.368 16.675H412.189C413.768 16.675 414.779 16.0917 415.095 14.4583V14.3417C415.031 14.2833 414.905 14.225 414.779 14.225H414.716Z" fill="#012169"/>
</g>
<g clip-path="url(#clip4_1_133)">
<path opacity="0.07" d="M448.105 9.5H427.895C426.821 9.5 426 10.2583 426 11.25V21.75C426 22.7417 426.884 23.5 427.895 23.5H448.105C449.179 23.5 450 22.7417 450 21.75V11.25C450 10.2583 449.116 9.5 448.105 9.5Z" fill="black"/>
<path d="M448.106 10.0833C448.8 10.0833 449.369 10.6083 449.369 11.25V21.75C449.369 22.3916 448.8 22.9166 448.106 22.9166H427.895C427.2 22.9166 426.632 22.3916 426.632 21.75V11.25C426.632 10.6083 427.2 10.0833 427.895 10.0833H448.106Z" fill="white"/>
<path d="M435.474 20.5834C437.915 20.5834 439.895 18.7552 439.895 16.5C439.895 14.2449 437.915 12.4167 435.474 12.4167C433.032 12.4167 431.053 14.2449 431.053 16.5C431.053 18.7552 433.032 20.5834 435.474 20.5834Z" fill="#EB001B"/>
<path d="M440.527 20.5834C442.968 20.5834 444.948 18.7552 444.948 16.5C444.948 14.2449 442.968 12.4167 440.527 12.4167C438.085 12.4167 436.105 14.2449 436.105 16.5C436.105 18.7552 438.085 20.5834 440.527 20.5834Z" fill="#FFC000"/>
<path d="M439.895 16.5C439.895 15.1 439.137 13.875 438 13.175C436.863 13.9333 436.105 15.1583 436.105 16.5C436.105 17.8417 436.863 19.125 438 19.825C439.137 19.125 439.895 17.9 439.895 16.5Z" fill="#FF5F00"/>
</g>
<g clip-path="url(#clip5_1_133)">
<path opacity="0.07" d="M474.105 9.5H453.895C452.821 9.5 452 10.2583 452 11.25V21.75C452 22.7417 452.884 23.5 453.895 23.5H474.105C475.179 23.5 476 22.7417 476 21.75V11.25C476 10.2583 475.116 9.5 474.105 9.5Z" fill="black"/>
<path d="M474.106 10.0833C474.8 10.0833 475.369 10.6083 475.369 11.25V21.75C475.369 22.3916 474.8 22.9166 474.106 22.9166H453.895C453.2 22.9166 452.632 22.3916 452.632 21.75V11.25C452.632 10.6083 453.2 10.0833 453.895 10.0833H474.106Z" fill="white"/>
<path d="M463.427 16.4861V18.3527H462.784V13.7444H464.484C464.687 13.7412 464.89 13.7752 465.079 13.8445C465.268 13.9138 465.441 14.017 465.587 14.1481C465.725 14.2673 465.837 14.4105 465.915 14.5696C465.994 14.7287 466.037 14.9004 466.044 15.0751C466.05 15.2498 466.019 15.4239 465.953 15.5875C465.887 15.7511 465.786 15.9011 465.657 16.0287L465.587 16.0964C465.29 16.3572 464.894 16.4989 464.484 16.4896L463.427 16.4861ZM463.427 14.3091V15.9354H464.5C464.738 15.9424 464.968 15.8567 465.134 15.6997C465.254 15.5849 465.334 15.4403 465.365 15.2837C465.396 15.1272 465.376 14.9657 465.308 14.8194C465.241 14.6731 465.128 14.5483 464.984 14.4607C464.84 14.3731 464.672 14.3264 464.5 14.3266L463.427 14.3091ZM467.522 15.0954C467.933 15.0779 468.334 15.2051 468.645 15.453C468.926 15.7038 469.076 16.0538 469.056 16.4149V18.3597H468.444V17.9129H468.413C468.303 18.0805 468.148 18.2188 467.963 18.314C467.777 18.4092 467.568 18.4582 467.356 18.456C467.01 18.4663 466.672 18.3553 466.411 18.1451C466.288 18.0519 466.188 17.9339 466.121 17.8001C466.054 17.6663 466.021 17.5202 466.024 17.3727C466.017 17.2238 466.048 17.0753 466.116 16.9398C466.183 16.8042 466.284 16.6855 466.411 16.5934C466.723 16.3864 467.1 16.2808 467.484 16.293C467.81 16.2813 468.134 16.3472 468.425 16.4861V16.3647C468.427 16.2644 468.404 16.165 468.359 16.0739C468.313 15.9829 468.246 15.9026 468.161 15.8392C467.992 15.6972 467.771 15.6204 467.542 15.6245C467.377 15.623 467.213 15.6607 467.067 15.7339C466.922 15.8071 466.798 15.9134 466.709 16.0427L466.144 15.7137C466.298 15.5106 466.505 15.3472 466.746 15.2389C466.987 15.1307 467.255 15.0813 467.522 15.0954ZM466.709 17.3867C466.708 17.4623 466.727 17.537 466.764 17.6044C466.801 17.6717 466.855 17.7296 466.922 17.7729C467.063 17.8756 467.238 17.9298 467.418 17.9263C467.689 17.9257 467.949 17.8272 468.142 17.651C468.334 17.4842 468.444 17.2514 468.444 17.0076C468.201 16.8479 467.905 16.7708 467.608 16.7894C467.376 16.781 467.148 16.8411 466.957 16.9609C466.881 17.0078 466.819 17.0711 466.776 17.1453C466.733 17.2196 466.71 17.3025 466.709 17.3867ZM472.574 15.1992L470.433 19.7434H469.771L470.58 18.1521L469.176 15.1992H469.872L470.89 17.4655L471.881 15.1992H472.574Z" fill="#5F6368"/>
<path d="M460.834 16.0824C460.834 15.9027 460.819 15.723 460.788 15.5457H458.078V16.5648H459.626C459.595 16.7268 459.528 16.8812 459.43 17.0188C459.333 17.1564 459.206 17.2744 459.058 17.3657V18.0272H459.982C460.263 17.776 460.484 17.4731 460.631 17.1381C460.778 16.8031 460.847 16.4435 460.834 16.0824Z" fill="#4285F4"/>
<path d="M458.081 18.6704C458.779 18.6881 459.459 18.4593 459.982 18.0305L459.056 17.3655C458.833 17.4973 458.581 17.5804 458.319 17.6087C458.056 17.6369 457.79 17.6095 457.541 17.5285C457.292 17.4475 457.066 17.3151 456.88 17.1413C456.695 16.9675 456.554 16.7569 456.47 16.5255H455.521V17.208C455.759 17.6473 456.124 18.0168 456.576 18.2751C457.028 18.5334 457.549 18.6703 458.081 18.6704Z" fill="#34A853"/>
<path d="M456.471 16.5294C456.351 16.2011 456.351 15.8455 456.471 15.5173V14.8348H455.522C455.32 15.2031 455.215 15.6103 455.215 16.0233C455.215 16.4363 455.32 16.8435 455.522 17.2119L456.471 16.5294Z" fill="#FFC000"/>
<path d="M458.081 14.4236C458.489 14.4167 458.884 14.5593 459.18 14.8203L460.001 14.066C459.477 13.6122 458.783 13.3646 458.065 13.3759C457.536 13.3784 457.019 13.5159 456.57 13.7733C456.121 14.0307 455.758 14.398 455.521 14.8343L456.47 15.5173C456.581 15.2024 456.796 14.9275 457.085 14.7313C457.374 14.5351 457.722 14.4275 458.081 14.4236Z" fill="#EA4335"/>
</g>
<g clip-path="url(#clip6_1_133)">
<path d="M499.718 9.5H480.282C480.201 9.5 480.119 9.5 480.039 9.5004C479.97 9.50092 479.902 9.50159 479.834 9.5033C479.685 9.507 479.536 9.51519 479.389 9.5395C479.242 9.56279 479.099 9.60621 478.966 9.66832C478.698 9.79424 478.48 9.99547 478.343 10.243C478.276 10.3662 478.229 10.4981 478.204 10.6341C478.177 10.7698 478.169 10.9081 478.165 11.0453C478.163 11.1082 478.162 11.1712 478.161 11.2342C478.161 11.3087 478.161 11.3835 478.161 11.4584V21.5415C478.161 21.6164 478.161 21.691 478.161 21.7659C478.162 21.8288 478.163 21.8918 478.165 21.9549C478.169 22.0917 478.177 22.2302 478.204 22.3658C478.229 22.5018 478.276 22.6336 478.343 22.7568C478.411 22.8799 478.499 22.9922 478.605 23.0898C478.711 23.1875 478.832 23.2691 478.965 23.3315C479.101 23.3954 479.24 23.4359 479.389 23.4606C479.536 23.4848 479.685 23.493 479.834 23.4967C479.902 23.4981 479.97 23.4989 480.039 23.4993C480.119 23.4999 480.201 23.4999 480.282 23.4999H499.718C499.799 23.4999 499.88 23.4999 499.961 23.4993C500.029 23.4991 500.097 23.4981 500.165 23.4967C500.314 23.493 500.464 23.4848 500.611 23.4606C500.758 23.4373 500.901 23.3938 501.034 23.3315C501.302 23.2055 501.52 23.0043 501.656 22.7568C501.725 22.6317 501.769 22.5036 501.795 22.3658C501.822 22.2302 501.831 22.0917 501.835 21.9549C501.836 21.8918 501.837 21.8288 501.838 21.7659C501.838 21.691 501.838 21.6164 501.838 21.5415V11.4585C501.838 11.3836 501.838 11.3088 501.838 11.2341C501.837 11.1711 501.836 11.1082 501.835 11.0453C501.831 10.9081 501.822 10.7698 501.795 10.6341C501.77 10.498 501.723 10.3662 501.656 10.243C501.52 9.99551 501.302 9.7943 501.034 9.66832C500.9 9.60627 500.758 9.5629 500.611 9.53964C500.464 9.51519 500.314 9.50713 500.165 9.50344C500.097 9.50183 500.029 9.50087 499.961 9.50053C499.88 9.5 499.799 9.5 499.718 9.5Z" fill="#E4E4E4"/>
<path d="M499.718 9.96667L499.957 9.96707C500.021 9.96747 500.086 9.96813 500.151 9.96971C500.265 9.97262 500.397 9.9783 500.521 9.99878C500.628 10.0166 500.718 10.0437 500.805 10.0844C500.977 10.1656 501.118 10.2955 501.206 10.4553C501.249 10.5345 501.279 10.6172 501.298 10.7172C501.32 10.8301 501.326 10.9528 501.329 11.0581C501.331 11.1176 501.332 11.177 501.332 11.2378C501.333 11.3114 501.333 11.3848 501.333 11.4586V21.5416C501.333 21.6154 501.333 21.6888 501.332 21.7639C501.332 21.8233 501.331 21.8828 501.329 21.9422C501.326 22.0474 501.32 22.1701 501.298 22.2843C501.281 22.3751 501.25 22.4631 501.205 22.5452C501.117 22.705 500.977 22.8349 500.804 22.9161C500.718 22.9565 500.628 22.9836 500.522 23.0013C500.396 23.022 500.258 23.0277 500.154 23.0303C500.088 23.0317 500.023 23.0326 499.956 23.0329C499.877 23.0334 499.797 23.0334 499.718 23.0334H480.278C480.199 23.0334 480.121 23.0334 480.041 23.0329C479.976 23.0326 479.912 23.0318 479.847 23.0305C479.741 23.0278 479.603 23.022 479.478 23.0014C479.379 22.9862 479.283 22.9572 479.194 22.9155C479.108 22.8753 479.03 22.8226 478.962 22.7596C478.894 22.6968 478.837 22.6245 478.793 22.5452C478.748 22.4626 478.717 22.3742 478.701 22.2829C478.678 22.1689 478.672 22.0467 478.669 21.9423C478.668 21.8827 478.667 21.823 478.666 21.7633L478.666 21.588V11.4123L478.666 11.2373C478.667 11.1775 478.668 11.1177 478.669 11.058C478.672 10.9533 478.678 10.8311 478.701 10.7162C478.717 10.6251 478.748 10.5369 478.793 10.4545C478.837 10.3752 478.894 10.3028 478.962 10.24C479.03 10.1771 479.109 10.1245 479.194 10.0841C479.284 10.0427 479.379 10.0139 479.478 9.99878C479.601 9.9783 479.734 9.97262 479.848 9.96971C479.912 9.96824 479.977 9.96736 480.041 9.96707L480.281 9.96667H499.718Z" fill="white"/>
<path d="M484.385 14.2259C484.586 13.994 484.722 13.6826 484.686 13.3645C484.392 13.378 484.034 13.5435 483.826 13.7757C483.64 13.9744 483.475 14.2987 483.518 14.6035C483.848 14.6299 484.177 14.4513 484.385 14.2259ZM484.682 14.6631C484.203 14.6367 483.796 14.9141 483.567 14.9141C483.339 14.9141 482.988 14.6763 482.609 14.6828C482.116 14.6894 481.659 14.947 481.408 15.3566C480.894 16.1757 481.273 17.3912 481.773 18.0584C482.016 18.3887 482.309 18.7521 482.695 18.739C483.06 18.7258 483.203 18.521 483.646 18.521C484.089 18.521 484.218 18.739 484.604 18.7324C485.004 18.7258 485.254 18.4021 485.497 18.0718C485.776 17.6952 485.89 17.3319 485.898 17.3121C485.89 17.3055 485.126 17.0345 485.118 16.222C485.111 15.5416 485.719 15.2179 485.748 15.1979C485.404 14.7292 484.868 14.6763 484.682 14.6631" fill="black"/>
<path d="M489.458 13.7424C490.499 13.7424 491.224 14.4052 491.224 15.3702C491.224 16.3386 490.484 17.0049 489.432 17.0049H488.279V18.6982H487.446V13.7424H489.458ZM488.279 16.3593H489.235C489.96 16.3593 490.372 15.9987 490.372 15.3736C490.372 14.7487 489.96 14.3915 489.238 14.3915H488.279V16.3593ZM491.431 17.6712C491.431 17.0358 491.955 16.6718 492.922 16.6169L493.959 16.5585V16.2837C493.959 15.882 493.673 15.6622 493.163 15.6622C492.743 15.6622 492.438 15.8613 492.375 16.1669H491.624C491.646 15.5248 492.301 15.0577 493.186 15.0577C494.137 15.0577 494.758 15.5179 494.758 16.2323V18.698H493.989V18.1039H493.97C493.751 18.4919 493.267 18.7357 492.743 18.7357C491.97 18.7357 491.431 18.31 491.431 17.6712ZM493.959 17.3519V17.0736L493.033 17.1286C492.512 17.1595 492.241 17.338 492.241 17.6505C492.241 17.9527 492.524 18.1485 492.966 18.1485C493.531 18.1485 493.959 17.8153 493.959 17.3519ZM495.466 20.0236V19.4296C495.518 19.4363 495.644 19.4432 495.711 19.4432C496.079 19.4432 496.288 19.2992 496.414 18.928L496.489 18.7083L495.079 15.1024H495.949L496.931 18.0283H496.95L497.931 15.1024H498.779L497.318 18.8903C496.983 19.7592 496.6 20.0443 495.789 20.0443C495.726 20.0443 495.522 20.0374 495.466 20.0236Z" fill="black"/>
</g>
<g clip-path="url(#clip7_1_133)">
<path opacity="0.07" d="M526.105 9.5H505.895C504.821 9.5 504 10.2583 504 11.25V21.75C504 22.7417 504.884 23.5 505.895 23.5H526.105C527.179 23.5 528 22.7417 528 21.75V11.25C528 10.2583 527.116 9.5 526.105 9.5Z" fill="black"/>
<path d="M526.106 10.0833C526.8 10.0833 527.369 10.6083 527.369 11.25V21.75C527.369 22.3916 526.8 22.9166 526.106 22.9166H505.895C505.2 22.9166 504.632 22.3916 504.632 21.75V11.25C504.632 10.6083 505.2 10.0833 505.895 10.0833H526.106Z" fill="#006FCF"/>
<path d="M509.666 15.4897L510.155 16.584H509.181L509.666 15.4897ZM519.819 15.5352H517.938V16.0176H519.788V16.7404H517.942V17.2782H519.822V17.7093L521.134 16.3997L519.822 15.0347L519.819 15.5352ZM510.937 14.1702H513.46L514.02 15.2989L514.539 14.1667H521.089L521.77 14.8609L522.474 14.1667H525.482L523.259 16.4137L525.459 18.6467H522.406L521.725 17.9525L521.015 18.6467H510.335L510.023 17.9525H509.309L508.996 18.6467H506.526L508.602 14.1667H510.768L510.937 14.1702ZM516.408 14.799H514.994L514.047 16.8617L513.02 14.799H511.617V17.6049L510.316 14.799H509.057L507.553 18.0144H508.535L508.847 17.3202H510.486L510.798 18.0144H512.516V15.7189L513.622 18.0179H514.374L515.473 15.7259V18.0184H516.394L516.409 14.7984L516.408 14.799ZM522.307 16.4137L523.906 14.799H522.755L521.744 15.8059L520.766 14.799H517.043V18.0179H520.713L521.732 17.004L522.71 18.0179H523.894L522.308 16.4137H522.307Z" fill="white"/>
</g>
<defs>
<clipPath id="clip0_1_133">
<rect width="12" height="12" fill="white" transform="translate(122 10.5)"/>
</clipPath>
<clipPath id="clip1_1_133">
<rect width="24" height="14" fill="white" transform="translate(348 9.5)"/>
</clipPath>
<clipPath id="clip2_1_133">
<rect width="24" height="14" fill="white" transform="translate(374 9.5)"/>
</clipPath>
<clipPath id="clip3_1_133">
<rect width="24" height="14" fill="white" transform="translate(400 9.5)"/>
</clipPath>
<clipPath id="clip4_1_133">
<rect width="24" height="14" fill="white" transform="translate(426 9.5)"/>
</clipPath>
<clipPath id="clip5_1_133">
<rect width="24" height="14" fill="white" transform="translate(452 9.5)"/>
</clipPath>
<clipPath id="clip6_1_133">
<rect width="24" height="14" fill="white" transform="translate(478 9.5)"/>
</clipPath>
<clipPath id="clip7_1_133">
<rect width="24" height="14" fill="white" transform="translate(504 9.5)"/>
</clipPath>
</defs>
</svg>
