<svg width="402" height="71" viewBox="0 0 322 71" fill="none" xmlns="http://www.w3.org/2000/svg">
<rect x="1" y="0.5" width="320" height="70" rx="3.5" stroke="#CFCFCF"/>
<path d="M17.34 21V12.36H22.302V13.242H18.222V16.242H21.582V17.118H18.222V21H17.34ZM23.3869 21V14.52H24.1789V16.08L24.0229 15.876C24.0949 15.684 24.1889 15.508 24.3049 15.348C24.4209 15.184 24.5469 15.05 24.6829 14.946C24.8509 14.798 25.0469 14.686 25.2709 14.61C25.4949 14.53 25.7209 14.484 25.9489 14.472C26.1769 14.456 26.3849 14.472 26.5729 14.52V15.348C26.3369 15.288 26.0789 15.274 25.7989 15.306C25.5189 15.338 25.2609 15.45 25.0249 15.642C24.8089 15.81 24.6469 16.012 24.5389 16.248C24.4309 16.48 24.3589 16.728 24.3229 16.992C24.2869 17.252 24.2689 17.51 24.2689 17.766V21H23.3869ZM30.3359 21.18C29.7039 21.18 29.1559 21.04 28.6919 20.76C28.2319 20.48 27.8739 20.086 27.6179 19.578C27.3619 19.07 27.2339 18.474 27.2339 17.79C27.2339 17.082 27.3599 16.47 27.6119 15.954C27.8639 15.438 28.2179 15.04 28.6739 14.76C29.1339 14.48 29.6759 14.34 30.2999 14.34C30.9399 14.34 31.4859 14.488 31.9379 14.784C32.3899 15.076 32.7319 15.496 32.9639 16.044C33.1959 16.592 33.3019 17.246 33.2819 18.006H32.3819V17.694C32.3659 16.854 32.1839 16.22 31.8359 15.792C31.4919 15.364 30.9879 15.15 30.3239 15.15C29.6279 15.15 29.0939 15.376 28.7219 15.828C28.3539 16.28 28.1699 16.924 28.1699 17.76C28.1699 18.576 28.3539 19.21 28.7219 19.662C29.0939 20.11 29.6199 20.334 30.2999 20.334C30.7639 20.334 31.1679 20.228 31.5119 20.016C31.8599 19.8 32.1339 19.49 32.3339 19.086L33.1559 19.404C32.8999 19.968 32.5219 20.406 32.0219 20.718C31.5259 21.026 30.9639 21.18 30.3359 21.18ZM27.8579 18.006V17.268H32.8079V18.006H27.8579ZM37.3554 21.18C36.7234 21.18 36.1754 21.04 35.7114 20.76C35.2514 20.48 34.8934 20.086 34.6374 19.578C34.3814 19.07 34.2534 18.474 34.2534 17.79C34.2534 17.082 34.3794 16.47 34.6314 15.954C34.8834 15.438 35.2374 15.04 35.6934 14.76C36.1534 14.48 36.6954 14.34 37.3194 14.34C37.9594 14.34 38.5054 14.488 38.9574 14.784C39.4094 15.076 39.7514 15.496 39.9834 16.044C40.2154 16.592 40.3214 17.246 40.3014 18.006H39.4014V17.694C39.3854 16.854 39.2034 16.22 38.8554 15.792C38.5114 15.364 38.0074 15.15 37.3434 15.15C36.6474 15.15 36.1134 15.376 35.7414 15.828C35.3734 16.28 35.1894 16.924 35.1894 17.76C35.1894 18.576 35.3734 19.21 35.7414 19.662C36.1134 20.11 36.6394 20.334 37.3194 20.334C37.7834 20.334 38.1874 20.228 38.5314 20.016C38.8794 19.8 39.1534 19.49 39.3534 19.086L40.1754 19.404C39.9194 19.968 39.5414 20.406 39.0414 20.718C38.5454 21.026 37.9834 21.18 37.3554 21.18ZM34.8774 18.006V17.268H39.8274V18.006H34.8774ZM47.0353 21.18C46.4313 21.18 45.8873 21.08 45.4033 20.88C44.9233 20.676 44.5253 20.388 44.2093 20.016C43.8973 19.644 43.6933 19.202 43.5973 18.69L44.4973 18.54C44.6413 19.1 44.9453 19.54 45.4093 19.86C45.8733 20.176 46.4273 20.334 47.0713 20.334C47.4953 20.334 47.8753 20.268 48.2113 20.136C48.5473 20 48.8113 19.808 49.0033 19.56C49.1953 19.312 49.2913 19.018 49.2913 18.678C49.2913 18.454 49.2513 18.264 49.1713 18.108C49.0913 17.948 48.9853 17.816 48.8533 17.712C48.7213 17.608 48.5773 17.522 48.4213 17.454C48.2653 17.382 48.1133 17.324 47.9653 17.28L45.7753 16.626C45.5113 16.55 45.2673 16.454 45.0433 16.338C44.8193 16.218 44.6233 16.076 44.4553 15.912C44.2913 15.744 44.1633 15.548 44.0713 15.324C43.9793 15.1 43.9333 14.844 43.9333 14.556C43.9333 14.068 44.0613 13.646 44.3173 13.29C44.5733 12.934 44.9233 12.66 45.3673 12.468C45.8113 12.276 46.3173 12.182 46.8853 12.186C47.4613 12.186 47.9753 12.288 48.4273 12.492C48.8833 12.696 49.2593 12.988 49.5553 13.368C49.8513 13.744 50.0473 14.19 50.1433 14.706L49.2193 14.874C49.1593 14.498 49.0213 14.172 48.8053 13.896C48.5893 13.62 48.3133 13.408 47.9773 13.26C47.6453 13.108 47.2793 13.03 46.8793 13.026C46.4913 13.026 46.1453 13.092 45.8413 13.224C45.5413 13.352 45.3033 13.528 45.1273 13.752C44.9513 13.976 44.8633 14.232 44.8633 14.52C44.8633 14.812 44.9433 15.046 45.1033 15.222C45.2673 15.398 45.4673 15.536 45.7033 15.636C45.9433 15.736 46.1753 15.818 46.3993 15.882L48.0913 16.38C48.2673 16.428 48.4733 16.498 48.7093 16.59C48.9493 16.678 49.1813 16.806 49.4053 16.974C49.6333 17.138 49.8213 17.354 49.9693 17.622C50.1173 17.89 50.1913 18.23 50.1913 18.642C50.1913 19.042 50.1113 19.4 49.9513 19.716C49.7953 20.032 49.5733 20.298 49.2853 20.514C49.0013 20.73 48.6673 20.894 48.2833 21.006C47.9033 21.122 47.4873 21.18 47.0353 21.18ZM56.1098 21V17.694C56.1098 17.334 56.0758 17.004 56.0078 16.704C55.9398 16.4 55.8298 16.136 55.6778 15.912C55.5298 15.684 55.3358 15.508 55.0958 15.384C54.8598 15.26 54.5718 15.198 54.2318 15.198C53.9198 15.198 53.6438 15.252 53.4038 15.36C53.1678 15.468 52.9678 15.624 52.8038 15.828C52.6438 16.028 52.5218 16.272 52.4378 16.56C52.3538 16.848 52.3118 17.176 52.3118 17.544L51.6878 17.406C51.6878 16.742 51.8038 16.184 52.0358 15.732C52.2678 15.28 52.5878 14.938 52.9958 14.706C53.4038 14.474 53.8718 14.358 54.3998 14.358C54.7878 14.358 55.1258 14.418 55.4138 14.538C55.7058 14.658 55.9518 14.82 56.1518 15.024C56.3558 15.228 56.5198 15.462 56.6438 15.726C56.7678 15.986 56.8578 16.264 56.9138 16.56C56.9698 16.852 56.9978 17.144 56.9978 17.436V21H56.1098ZM51.4238 21V12.36H52.2218V17.238H52.3118V21H51.4238ZM58.6748 13.29V12.3H59.5568V13.29H58.6748ZM58.6748 21V14.52H59.5568V21H58.6748ZM64.2656 21.18C63.6696 21.18 63.1656 21.03 62.7536 20.73C62.3416 20.426 62.0296 20.016 61.8176 19.5C61.6056 18.98 61.4996 18.398 61.4996 17.754C61.4996 17.098 61.6056 16.514 61.8176 16.002C62.0336 15.486 62.3496 15.08 62.7656 14.784C63.1816 14.488 63.6936 14.34 64.3016 14.34C64.8936 14.34 65.4016 14.49 65.8256 14.79C66.2496 15.09 66.5736 15.498 66.7976 16.014C67.0256 16.53 67.1396 17.11 67.1396 17.754C67.1396 18.402 67.0256 18.984 66.7976 19.5C66.5696 20.016 66.2416 20.426 65.8136 20.73C65.3856 21.03 64.8696 21.18 64.2656 21.18ZM61.3496 23.88V14.52H62.1416V19.398H62.2376V23.88H61.3496ZM64.1756 20.358C64.6276 20.358 65.0036 20.244 65.3036 20.016C65.6036 19.788 65.8276 19.478 65.9756 19.086C66.1276 18.69 66.2036 18.246 66.2036 17.754C66.2036 17.266 66.1296 16.826 65.9816 16.434C65.8336 16.042 65.6076 15.732 65.3036 15.504C65.0036 15.276 64.6216 15.162 64.1576 15.162C63.7056 15.162 63.3296 15.272 63.0296 15.492C62.7336 15.712 62.5116 16.018 62.3636 16.41C62.2156 16.798 62.1416 17.246 62.1416 17.754C62.1416 18.254 62.2156 18.702 62.3636 19.098C62.5116 19.49 62.7356 19.798 63.0356 20.022C63.3356 20.246 63.7156 20.358 64.1756 20.358ZM71.3672 21.18C70.7712 21.18 70.2672 21.03 69.8552 20.73C69.4432 20.426 69.1312 20.016 68.9192 19.5C68.7072 18.98 68.6012 18.398 68.6012 17.754C68.6012 17.098 68.7072 16.514 68.9192 16.002C69.1352 15.486 69.4512 15.08 69.8672 14.784C70.2832 14.488 70.7952 14.34 71.4032 14.34C71.9952 14.34 72.5032 14.49 72.9272 14.79C73.3512 15.09 73.6752 15.498 73.8992 16.014C74.1272 16.53 74.2412 17.11 74.2412 17.754C74.2412 18.402 74.1272 18.984 73.8992 19.5C73.6712 20.016 73.3432 20.426 72.9152 20.73C72.4872 21.03 71.9712 21.18 71.3672 21.18ZM68.4512 23.88V14.52H69.2432V19.398H69.3392V23.88H68.4512ZM71.2772 20.358C71.7292 20.358 72.1052 20.244 72.4052 20.016C72.7052 19.788 72.9292 19.478 73.0772 19.086C73.2292 18.69 73.3052 18.246 73.3052 17.754C73.3052 17.266 73.2312 16.826 73.0832 16.434C72.9352 16.042 72.7092 15.732 72.4052 15.504C72.1052 15.276 71.7232 15.162 71.2592 15.162C70.8072 15.162 70.4312 15.272 70.1312 15.492C69.8352 15.712 69.6132 16.018 69.4652 16.41C69.3172 16.798 69.2432 17.246 69.2432 17.754C69.2432 18.254 69.3172 18.702 69.4652 19.098C69.6132 19.49 69.8372 19.798 70.1372 20.022C70.4372 20.246 70.8172 20.358 71.2772 20.358ZM75.6788 13.29V12.3H76.5608V13.29H75.6788ZM75.6788 21V14.52H76.5608V21H75.6788ZM83.0395 21V17.694C83.0395 17.334 83.0055 17.004 82.9375 16.704C82.8695 16.4 82.7595 16.136 82.6075 15.912C82.4595 15.684 82.2655 15.508 82.0255 15.384C81.7895 15.26 81.5015 15.198 81.1615 15.198C80.8495 15.198 80.5735 15.252 80.3335 15.36C80.0975 15.468 79.8975 15.624 79.7335 15.828C79.5735 16.028 79.4515 16.272 79.3675 16.56C79.2835 16.848 79.2415 17.176 79.2415 17.544L78.6175 17.406C78.6175 16.742 78.7335 16.184 78.9655 15.732C79.1975 15.28 79.5175 14.938 79.9255 14.706C80.3335 14.474 80.8015 14.358 81.3295 14.358C81.7175 14.358 82.0555 14.418 82.3435 14.538C82.6355 14.658 82.8815 14.82 83.0815 15.024C83.2855 15.228 83.4495 15.462 83.5735 15.726C83.6975 15.986 83.7875 16.264 83.8435 16.56C83.8995 16.852 83.9275 17.144 83.9275 17.436V21H83.0395ZM78.3535 21V14.52H79.1515V16.116H79.2415V21H78.3535ZM88.0585 24.06C87.7265 24.06 87.3985 24.01 87.0745 23.91C86.7545 23.814 86.4585 23.66 86.1865 23.448C85.9145 23.24 85.6865 22.968 85.5025 22.632L86.3005 22.188C86.4805 22.548 86.7325 22.806 87.0565 22.962C87.3845 23.122 87.7185 23.202 88.0585 23.202C88.5265 23.202 88.9045 23.114 89.1925 22.938C89.4845 22.766 89.6965 22.51 89.8285 22.17C89.9605 21.83 90.0245 21.406 90.0205 20.898V19.17H90.1225V14.52H90.9085V20.91C90.9085 21.094 90.9025 21.27 90.8905 21.438C90.8825 21.61 90.8645 21.778 90.8365 21.942C90.7605 22.426 90.6025 22.824 90.3625 23.136C90.1265 23.448 89.8145 23.68 89.4265 23.832C89.0425 23.984 88.5865 24.06 88.0585 24.06ZM87.9985 21.18C87.3945 21.18 86.8785 21.03 86.4505 20.73C86.0225 20.426 85.6945 20.016 85.4665 19.5C85.2385 18.984 85.1245 18.402 85.1245 17.754C85.1245 17.11 85.2365 16.53 85.4605 16.014C85.6885 15.498 86.0145 15.09 86.4385 14.79C86.8625 14.49 87.3705 14.34 87.9625 14.34C88.5705 14.34 89.0825 14.488 89.4985 14.784C89.9145 15.08 90.2285 15.486 90.4405 16.002C90.6565 16.514 90.7645 17.098 90.7645 17.754C90.7645 18.398 90.6585 18.98 90.4465 19.5C90.2345 20.016 89.9225 20.426 89.5105 20.73C89.0985 21.03 88.5945 21.18 87.9985 21.18ZM88.0885 20.358C88.5485 20.358 88.9285 20.246 89.2285 20.022C89.5285 19.798 89.7525 19.49 89.9005 19.098C90.0485 18.702 90.1225 18.254 90.1225 17.754C90.1225 17.246 90.0485 16.798 89.9005 16.41C89.7525 16.018 89.5285 15.712 89.2285 15.492C88.9325 15.272 88.5585 15.162 88.1065 15.162C87.6425 15.162 87.2585 15.276 86.9545 15.504C86.6505 15.732 86.4245 16.042 86.2765 16.434C86.1325 16.826 86.0605 17.266 86.0605 17.754C86.0605 18.246 86.1345 18.69 86.2825 19.086C86.4345 19.478 86.6605 19.788 86.9605 20.016C87.2605 20.244 87.6365 20.358 88.0885 20.358Z" fill="#4D5254"/>
<line x1="105" y1="9.5" x2="105" y2="23.5" stroke="#CFCFCF"/>
<g clip-path="url(#clip0_74_184)">
<path d="M125.625 15.999H118.625C118.073 15.999 117.625 16.4467 117.625 16.999V20.499C117.625 21.0513 118.073 21.499 118.625 21.499H125.625C126.177 21.499 126.625 21.0513 126.625 20.499V16.999C126.625 16.4467 126.177 15.999 125.625 15.999Z" stroke="#696969" stroke-width="1.33333" stroke-linecap="round" stroke-linejoin="round"/>
<path d="M119.626 15.999V13.999C119.626 13.336 119.889 12.7001 120.358 12.2313C120.827 11.7624 121.463 11.499 122.126 11.499C122.789 11.499 123.425 11.7624 123.894 12.2313C124.363 12.7001 124.626 13.336 124.626 13.999V15.999" stroke="#696969" stroke-width="1.33333" stroke-linecap="round" stroke-linejoin="round"/>
</g>
<path d="M140.635 21.18C140.031 21.18 139.487 21.08 139.003 20.88C138.523 20.676 138.125 20.388 137.809 20.016C137.497 19.644 137.293 19.202 137.197 18.69L138.097 18.54C138.241 19.1 138.545 19.54 139.009 19.86C139.473 20.176 140.027 20.334 140.671 20.334C141.095 20.334 141.475 20.268 141.811 20.136C142.147 20 142.411 19.808 142.603 19.56C142.795 19.312 142.891 19.018 142.891 18.678C142.891 18.454 142.851 18.264 142.771 18.108C142.691 17.948 142.585 17.816 142.453 17.712C142.321 17.608 142.177 17.522 142.021 17.454C141.865 17.382 141.713 17.324 141.565 17.28L139.375 16.626C139.111 16.55 138.867 16.454 138.643 16.338C138.419 16.218 138.223 16.076 138.055 15.912C137.891 15.744 137.763 15.548 137.671 15.324C137.579 15.1 137.533 14.844 137.533 14.556C137.533 14.068 137.661 13.646 137.917 13.29C138.173 12.934 138.523 12.66 138.967 12.468C139.411 12.276 139.917 12.182 140.485 12.186C141.061 12.186 141.575 12.288 142.027 12.492C142.483 12.696 142.859 12.988 143.155 13.368C143.451 13.744 143.647 14.19 143.743 14.706L142.819 14.874C142.759 14.498 142.621 14.172 142.405 13.896C142.189 13.62 141.913 13.408 141.577 13.26C141.245 13.108 140.879 13.03 140.479 13.026C140.091 13.026 139.745 13.092 139.441 13.224C139.141 13.352 138.903 13.528 138.727 13.752C138.551 13.976 138.463 14.232 138.463 14.52C138.463 14.812 138.543 15.046 138.703 15.222C138.867 15.398 139.067 15.536 139.303 15.636C139.543 15.736 139.775 15.818 139.999 15.882L141.691 16.38C141.867 16.428 142.073 16.498 142.309 16.59C142.549 16.678 142.781 16.806 143.005 16.974C143.233 17.138 143.421 17.354 143.569 17.622C143.717 17.89 143.791 18.23 143.791 18.642C143.791 19.042 143.711 19.4 143.551 19.716C143.395 20.032 143.173 20.298 142.885 20.514C142.601 20.73 142.267 20.894 141.883 21.006C141.503 21.122 141.087 21.18 140.635 21.18ZM147.771 21.18C147.139 21.18 146.591 21.04 146.127 20.76C145.667 20.48 145.309 20.086 145.053 19.578C144.797 19.07 144.669 18.474 144.669 17.79C144.669 17.082 144.795 16.47 145.047 15.954C145.299 15.438 145.653 15.04 146.109 14.76C146.569 14.48 147.111 14.34 147.735 14.34C148.375 14.34 148.921 14.488 149.373 14.784C149.825 15.076 150.167 15.496 150.399 16.044C150.631 16.592 150.737 17.246 150.717 18.006H149.817V17.694C149.801 16.854 149.619 16.22 149.271 15.792C148.927 15.364 148.423 15.15 147.759 15.15C147.063 15.15 146.529 15.376 146.157 15.828C145.789 16.28 145.605 16.924 145.605 17.76C145.605 18.576 145.789 19.21 146.157 19.662C146.529 20.11 147.055 20.334 147.735 20.334C148.199 20.334 148.603 20.228 148.947 20.016C149.295 19.8 149.569 19.49 149.769 19.086L150.591 19.404C150.335 19.968 149.957 20.406 149.457 20.718C148.961 21.026 148.399 21.18 147.771 21.18ZM145.293 18.006V17.268H150.243V18.006H145.293ZM154.737 21.18C154.085 21.18 153.533 21.034 153.081 20.742C152.629 20.45 152.285 20.048 152.049 19.536C151.817 19.02 151.697 18.428 151.689 17.76C151.697 17.08 151.821 16.484 152.061 15.972C152.301 15.456 152.647 15.056 153.099 14.772C153.551 14.484 154.099 14.34 154.743 14.34C155.399 14.34 155.969 14.5 156.453 14.82C156.941 15.14 157.275 15.578 157.455 16.134L156.591 16.41C156.439 16.022 156.197 15.722 155.865 15.51C155.537 15.294 155.161 15.186 154.737 15.186C154.261 15.186 153.867 15.296 153.555 15.516C153.243 15.732 153.011 16.034 152.859 16.422C152.707 16.81 152.629 17.256 152.625 17.76C152.633 18.536 152.813 19.16 153.165 19.632C153.517 20.1 154.041 20.334 154.737 20.334C155.177 20.334 155.551 20.234 155.859 20.034C156.171 19.83 156.407 19.534 156.567 19.146L157.455 19.41C157.215 19.986 156.863 20.426 156.399 20.73C155.935 21.03 155.381 21.18 154.737 21.18ZM161.172 21.162C160.784 21.162 160.444 21.102 160.152 20.982C159.864 20.862 159.618 20.7 159.414 20.496C159.214 20.292 159.052 20.06 158.928 19.8C158.804 19.536 158.714 19.258 158.658 18.966C158.602 18.67 158.574 18.376 158.574 18.084V14.52H159.462V17.826C159.462 18.182 159.496 18.512 159.564 18.816C159.632 19.12 159.74 19.386 159.888 19.614C160.04 19.838 160.234 20.012 160.47 20.136C160.71 20.26 161 20.322 161.34 20.322C161.652 20.322 161.926 20.268 162.162 20.16C162.402 20.052 162.602 19.898 162.762 19.698C162.926 19.494 163.05 19.248 163.134 18.96C163.218 18.668 163.26 18.34 163.26 17.976L163.884 18.114C163.884 18.778 163.768 19.336 163.536 19.788C163.304 20.24 162.984 20.582 162.576 20.814C162.168 21.046 161.7 21.162 161.172 21.162ZM163.35 21V19.404H163.26V14.52H164.142V21H163.35ZM165.819 21V14.52H166.611V16.08L166.455 15.876C166.527 15.684 166.621 15.508 166.737 15.348C166.853 15.184 166.979 15.05 167.115 14.946C167.283 14.798 167.479 14.686 167.703 14.61C167.927 14.53 168.153 14.484 168.381 14.472C168.609 14.456 168.817 14.472 169.005 14.52V15.348C168.769 15.288 168.511 15.274 168.231 15.306C167.951 15.338 167.693 15.45 167.457 15.642C167.241 15.81 167.079 16.012 166.971 16.248C166.863 16.48 166.791 16.728 166.755 16.992C166.719 17.252 166.701 17.51 166.701 17.766V21H165.819ZM172.768 21.18C172.136 21.18 171.588 21.04 171.124 20.76C170.664 20.48 170.306 20.086 170.05 19.578C169.794 19.07 169.666 18.474 169.666 17.79C169.666 17.082 169.792 16.47 170.044 15.954C170.296 15.438 170.65 15.04 171.106 14.76C171.566 14.48 172.108 14.34 172.732 14.34C173.372 14.34 173.918 14.488 174.37 14.784C174.822 15.076 175.164 15.496 175.396 16.044C175.628 16.592 175.734 17.246 175.714 18.006H174.814V17.694C174.798 16.854 174.616 16.22 174.268 15.792C173.924 15.364 173.42 15.15 172.756 15.15C172.06 15.15 171.526 15.376 171.154 15.828C170.786 16.28 170.602 16.924 170.602 17.76C170.602 18.576 170.786 19.21 171.154 19.662C171.526 20.11 172.052 20.334 172.732 20.334C173.196 20.334 173.6 20.228 173.944 20.016C174.292 19.8 174.566 19.49 174.766 19.086L175.588 19.404C175.332 19.968 174.954 20.406 174.454 20.718C173.958 21.026 173.396 21.18 172.768 21.18ZM170.29 18.006V17.268H175.24V18.006H170.29ZM179.207 20.994L179.213 20.19L183.119 16.662C183.455 16.358 183.677 16.07 183.785 15.798C183.897 15.522 183.953 15.234 183.953 14.934C183.953 14.578 183.869 14.256 183.701 13.968C183.533 13.68 183.307 13.452 183.023 13.284C182.739 13.112 182.421 13.026 182.069 13.026C181.701 13.026 181.373 13.114 181.085 13.29C180.797 13.466 180.569 13.698 180.401 13.986C180.237 14.274 180.157 14.588 180.161 14.928H179.261C179.261 14.404 179.385 13.934 179.633 13.518C179.881 13.102 180.217 12.776 180.641 12.54C181.065 12.3 181.545 12.18 182.081 12.18C182.605 12.18 183.075 12.304 183.491 12.552C183.911 12.796 184.241 13.128 184.481 13.548C184.725 13.964 184.847 14.428 184.847 14.94C184.847 15.3 184.803 15.618 184.715 15.894C184.631 16.166 184.497 16.42 184.313 16.656C184.133 16.888 183.903 17.128 183.623 17.376L180.155 20.508L180.017 20.148H184.847V20.994H179.207ZM188.841 21.18C188.393 21.18 187.979 21.088 187.599 20.904C187.219 20.72 186.895 20.466 186.627 20.142C186.359 19.818 186.167 19.446 186.051 19.026L186.897 18.798C186.973 19.11 187.111 19.38 187.311 19.608C187.511 19.832 187.745 20.006 188.013 20.13C188.285 20.254 188.569 20.316 188.865 20.316C189.249 20.316 189.593 20.224 189.897 20.04C190.205 19.852 190.449 19.604 190.629 19.296C190.809 18.988 190.899 18.65 190.899 18.282C190.899 17.902 190.805 17.56 190.617 17.256C190.429 16.948 190.181 16.704 189.873 16.524C189.565 16.344 189.229 16.254 188.865 16.254C188.457 16.254 188.105 16.344 187.809 16.524C187.513 16.7 187.277 16.922 187.101 17.19L186.297 16.854L186.561 12.36H191.175V13.206H186.951L187.389 12.792L187.155 16.626L186.933 16.332C187.181 16.048 187.481 15.826 187.833 15.666C188.185 15.506 188.555 15.426 188.943 15.426C189.475 15.426 189.955 15.554 190.383 15.81C190.811 16.062 191.151 16.404 191.403 16.836C191.655 17.268 191.781 17.75 191.781 18.282C191.781 18.81 191.647 19.294 191.379 19.734C191.111 20.17 190.755 20.52 190.311 20.784C189.867 21.048 189.377 21.18 188.841 21.18ZM196.139 21.18C195.599 21.18 195.107 21.05 194.663 20.79C194.223 20.526 193.871 20.17 193.607 19.722C193.347 19.27 193.217 18.762 193.217 18.198V15.204C193.217 14.624 193.347 14.108 193.607 13.656C193.867 13.2 194.221 12.842 194.669 12.582C195.121 12.318 195.633 12.186 196.205 12.186C196.697 12.186 197.153 12.294 197.573 12.51C197.997 12.726 198.343 13.028 198.611 13.416L197.933 13.974C197.749 13.686 197.505 13.456 197.201 13.284C196.897 13.112 196.565 13.026 196.205 13.026C195.801 13.026 195.441 13.124 195.125 13.32C194.809 13.516 194.561 13.774 194.381 14.094C194.201 14.41 194.111 14.754 194.111 15.126V17.01L193.889 16.758C194.141 16.362 194.471 16.042 194.879 15.798C195.291 15.554 195.739 15.432 196.223 15.432C196.759 15.432 197.241 15.56 197.669 15.816C198.097 16.068 198.437 16.41 198.689 16.842C198.941 17.274 199.067 17.758 199.067 18.294C199.067 18.826 198.933 19.31 198.665 19.746C198.401 20.182 198.047 20.53 197.603 20.79C197.163 21.05 196.675 21.18 196.139 21.18ZM196.139 20.322C196.515 20.322 196.857 20.232 197.165 20.052C197.477 19.872 197.723 19.628 197.903 19.32C198.087 19.012 198.179 18.67 198.179 18.294C198.179 17.918 198.087 17.576 197.903 17.268C197.723 16.956 197.479 16.71 197.171 16.53C196.863 16.346 196.521 16.254 196.145 16.254C195.769 16.254 195.427 16.346 195.119 16.53C194.811 16.71 194.565 16.956 194.381 17.268C194.201 17.576 194.111 17.918 194.111 18.294C194.111 18.666 194.201 19.006 194.381 19.314C194.561 19.622 194.805 19.868 195.113 20.052C195.421 20.232 195.763 20.322 196.139 20.322ZM200.538 17.598V16.842H204.138V17.598H200.538ZM205.697 21V12.36H209.033C209.517 12.36 209.939 12.46 210.299 12.66C210.659 12.86 210.939 13.13 211.139 13.47C211.339 13.806 211.439 14.178 211.439 14.586C211.439 15.05 211.315 15.464 211.067 15.828C210.819 16.188 210.487 16.438 210.071 16.578L210.059 16.284C210.619 16.444 211.059 16.724 211.379 17.124C211.699 17.524 211.859 18.008 211.859 18.576C211.859 19.076 211.753 19.508 211.541 19.872C211.329 20.232 211.031 20.51 210.647 20.706C210.263 20.902 209.817 21 209.309 21H205.697ZM206.585 20.154H209.093C209.445 20.154 209.761 20.092 210.041 19.968C210.321 19.84 210.541 19.66 210.701 19.428C210.865 19.196 210.947 18.916 210.947 18.588C210.947 18.268 210.873 17.98 210.725 17.724C210.577 17.468 210.375 17.264 210.119 17.112C209.867 16.956 209.579 16.878 209.255 16.878H206.585V20.154ZM206.585 16.044H209.027C209.303 16.044 209.555 15.982 209.783 15.858C210.011 15.73 210.191 15.556 210.323 15.336C210.459 15.116 210.527 14.862 210.527 14.574C210.527 14.166 210.385 13.834 210.101 13.578C209.821 13.322 209.463 13.194 209.027 13.194H206.585V16.044ZM213.177 13.29V12.3H214.059V13.29H213.177ZM213.177 21V14.52H214.059V21H213.177ZM219.386 21C219.022 21.076 218.662 21.106 218.306 21.09C217.954 21.074 217.638 20.998 217.358 20.862C217.082 20.726 216.872 20.514 216.728 20.226C216.612 19.986 216.548 19.744 216.536 19.5C216.528 19.252 216.524 18.97 216.524 18.654V12.72H217.4V18.618C217.4 18.89 217.402 19.118 217.406 19.302C217.414 19.482 217.456 19.642 217.532 19.782C217.676 20.05 217.904 20.21 218.216 20.262C218.532 20.314 218.922 20.302 219.386 20.226V21ZM215.138 15.276V14.52H219.386V15.276H215.138ZM226.065 21.18C225.461 21.18 224.917 21.08 224.433 20.88C223.953 20.676 223.555 20.388 223.239 20.016C222.927 19.644 222.723 19.202 222.627 18.69L223.527 18.54C223.671 19.1 223.975 19.54 224.439 19.86C224.903 20.176 225.457 20.334 226.101 20.334C226.525 20.334 226.905 20.268 227.241 20.136C227.577 20 227.841 19.808 228.033 19.56C228.225 19.312 228.321 19.018 228.321 18.678C228.321 18.454 228.281 18.264 228.201 18.108C228.121 17.948 228.015 17.816 227.883 17.712C227.751 17.608 227.607 17.522 227.451 17.454C227.295 17.382 227.143 17.324 226.995 17.28L224.805 16.626C224.541 16.55 224.297 16.454 224.073 16.338C223.849 16.218 223.653 16.076 223.485 15.912C223.321 15.744 223.193 15.548 223.101 15.324C223.009 15.1 222.963 14.844 222.963 14.556C222.963 14.068 223.091 13.646 223.347 13.29C223.603 12.934 223.953 12.66 224.397 12.468C224.841 12.276 225.347 12.182 225.915 12.186C226.491 12.186 227.005 12.288 227.457 12.492C227.913 12.696 228.289 12.988 228.585 13.368C228.881 13.744 229.077 14.19 229.173 14.706L228.249 14.874C228.189 14.498 228.051 14.172 227.835 13.896C227.619 13.62 227.343 13.408 227.007 13.26C226.675 13.108 226.309 13.03 225.909 13.026C225.521 13.026 225.175 13.092 224.871 13.224C224.571 13.352 224.333 13.528 224.157 13.752C223.981 13.976 223.893 14.232 223.893 14.52C223.893 14.812 223.973 15.046 224.133 15.222C224.297 15.398 224.497 15.536 224.733 15.636C224.973 15.736 225.205 15.818 225.429 15.882L227.121 16.38C227.297 16.428 227.503 16.498 227.739 16.59C227.979 16.678 228.211 16.806 228.435 16.974C228.663 17.138 228.851 17.354 228.999 17.622C229.147 17.89 229.221 18.23 229.221 18.642C229.221 19.042 229.141 19.4 228.981 19.716C228.825 20.032 228.603 20.298 228.315 20.514C228.031 20.73 227.697 20.894 227.313 21.006C226.933 21.122 226.517 21.18 226.065 21.18ZM233.635 21.18C233.031 21.18 232.487 21.08 232.003 20.88C231.523 20.676 231.125 20.388 230.809 20.016C230.497 19.644 230.293 19.202 230.197 18.69L231.097 18.54C231.241 19.1 231.545 19.54 232.009 19.86C232.473 20.176 233.027 20.334 233.671 20.334C234.095 20.334 234.475 20.268 234.811 20.136C235.147 20 235.411 19.808 235.603 19.56C235.795 19.312 235.891 19.018 235.891 18.678C235.891 18.454 235.851 18.264 235.771 18.108C235.691 17.948 235.585 17.816 235.453 17.712C235.321 17.608 235.177 17.522 235.021 17.454C234.865 17.382 234.713 17.324 234.565 17.28L232.375 16.626C232.111 16.55 231.867 16.454 231.643 16.338C231.419 16.218 231.223 16.076 231.055 15.912C230.891 15.744 230.763 15.548 230.671 15.324C230.579 15.1 230.533 14.844 230.533 14.556C230.533 14.068 230.661 13.646 230.917 13.29C231.173 12.934 231.523 12.66 231.967 12.468C232.411 12.276 232.917 12.182 233.485 12.186C234.061 12.186 234.575 12.288 235.027 12.492C235.483 12.696 235.859 12.988 236.155 13.368C236.451 13.744 236.647 14.19 236.743 14.706L235.819 14.874C235.759 14.498 235.621 14.172 235.405 13.896C235.189 13.62 234.913 13.408 234.577 13.26C234.245 13.108 233.879 13.03 233.479 13.026C233.091 13.026 232.745 13.092 232.441 13.224C232.141 13.352 231.903 13.528 231.727 13.752C231.551 13.976 231.463 14.232 231.463 14.52C231.463 14.812 231.543 15.046 231.703 15.222C231.867 15.398 232.067 15.536 232.303 15.636C232.543 15.736 232.775 15.818 232.999 15.882L234.691 16.38C234.867 16.428 235.073 16.498 235.309 16.59C235.549 16.678 235.781 16.806 236.005 16.974C236.233 17.138 236.421 17.354 236.569 17.622C236.717 17.89 236.791 18.23 236.791 18.642C236.791 19.042 236.711 19.4 236.551 19.716C236.395 20.032 236.173 20.298 235.885 20.514C235.601 20.73 235.267 20.894 234.883 21.006C234.503 21.122 234.087 21.18 233.635 21.18ZM238.149 21V12.36H239.031V20.154H243.135V21H238.149ZM245.963 21V12.36H251.363V13.206H246.845V16.194H250.643V17.04H246.845V20.154H251.363V21H245.963ZM257.487 21V17.694C257.487 17.334 257.453 17.004 257.385 16.704C257.317 16.4 257.207 16.136 257.055 15.912C256.907 15.684 256.713 15.508 256.473 15.384C256.237 15.26 255.949 15.198 255.609 15.198C255.297 15.198 255.021 15.252 254.781 15.36C254.545 15.468 254.345 15.624 254.181 15.828C254.021 16.028 253.899 16.272 253.815 16.56C253.731 16.848 253.689 17.176 253.689 17.544L253.065 17.406C253.065 16.742 253.181 16.184 253.413 15.732C253.645 15.28 253.965 14.938 254.373 14.706C254.781 14.474 255.249 14.358 255.777 14.358C256.165 14.358 256.503 14.418 256.791 14.538C257.083 14.658 257.329 14.82 257.529 15.024C257.733 15.228 257.897 15.462 258.021 15.726C258.145 15.986 258.235 16.264 258.291 16.56C258.347 16.852 258.375 17.144 258.375 17.436V21H257.487ZM252.801 21V14.52H253.599V16.116H253.689V21H252.801ZM262.585 21.18C261.933 21.18 261.381 21.034 260.929 20.742C260.477 20.45 260.133 20.048 259.897 19.536C259.665 19.02 259.545 18.428 259.537 17.76C259.545 17.08 259.669 16.484 259.909 15.972C260.149 15.456 260.495 15.056 260.947 14.772C261.399 14.484 261.947 14.34 262.591 14.34C263.247 14.34 263.817 14.5 264.301 14.82C264.789 15.14 265.123 15.578 265.303 16.134L264.439 16.41C264.287 16.022 264.045 15.722 263.713 15.51C263.385 15.294 263.009 15.186 262.585 15.186C262.109 15.186 261.715 15.296 261.403 15.516C261.091 15.732 260.859 16.034 260.707 16.422C260.555 16.81 260.477 17.256 260.473 17.76C260.481 18.536 260.661 19.16 261.013 19.632C261.365 20.1 261.889 20.334 262.585 20.334C263.025 20.334 263.399 20.234 263.707 20.034C264.019 19.83 264.255 19.534 264.415 19.146L265.303 19.41C265.063 19.986 264.711 20.426 264.247 20.73C263.783 21.03 263.229 21.18 262.585 21.18ZM266.541 21V14.52H267.333V16.08L267.177 15.876C267.249 15.684 267.343 15.508 267.459 15.348C267.575 15.184 267.701 15.05 267.837 14.946C268.005 14.798 268.201 14.686 268.425 14.61C268.649 14.53 268.875 14.484 269.103 14.472C269.331 14.456 269.539 14.472 269.727 14.52V15.348C269.491 15.288 269.233 15.274 268.953 15.306C268.673 15.338 268.415 15.45 268.179 15.642C267.963 15.81 267.801 16.012 267.693 16.248C267.585 16.48 267.513 16.728 267.477 16.992C267.441 17.252 267.423 17.51 267.423 17.766V21H266.541ZM271.707 23.88L272.961 20.478L272.979 21.486L270.141 14.52H271.077L273.405 20.346H273.021L275.169 14.52H276.069L272.589 23.88H271.707ZM280.021 21.18C279.425 21.18 278.921 21.03 278.509 20.73C278.097 20.426 277.785 20.016 277.573 19.5C277.361 18.98 277.255 18.398 277.255 17.754C277.255 17.098 277.361 16.514 277.573 16.002C277.789 15.486 278.105 15.08 278.521 14.784C278.937 14.488 279.449 14.34 280.057 14.34C280.649 14.34 281.157 14.49 281.581 14.79C282.005 15.09 282.329 15.498 282.553 16.014C282.781 16.53 282.895 17.11 282.895 17.754C282.895 18.402 282.781 18.984 282.553 19.5C282.325 20.016 281.997 20.426 281.569 20.73C281.141 21.03 280.625 21.18 280.021 21.18ZM277.105 23.88V14.52H277.897V19.398H277.993V23.88H277.105ZM279.931 20.358C280.383 20.358 280.759 20.244 281.059 20.016C281.359 19.788 281.583 19.478 281.731 19.086C281.883 18.69 281.959 18.246 281.959 17.754C281.959 17.266 281.885 16.826 281.737 16.434C281.589 16.042 281.363 15.732 281.059 15.504C280.759 15.276 280.377 15.162 279.913 15.162C279.461 15.162 279.085 15.272 278.785 15.492C278.489 15.712 278.267 16.018 278.119 16.41C277.971 16.798 277.897 17.246 277.897 17.754C277.897 18.254 277.971 18.702 278.119 19.098C278.267 19.49 278.491 19.798 278.791 20.022C279.091 20.246 279.471 20.358 279.931 20.358ZM287.741 21C287.377 21.076 287.017 21.106 286.661 21.09C286.309 21.074 285.993 20.998 285.713 20.862C285.437 20.726 285.227 20.514 285.083 20.226C284.967 19.986 284.903 19.744 284.891 19.5C284.883 19.252 284.879 18.97 284.879 18.654V12.72H285.755V18.618C285.755 18.89 285.757 19.118 285.761 19.302C285.769 19.482 285.811 19.642 285.887 19.782C286.031 20.05 286.259 20.21 286.571 20.262C286.887 20.314 287.277 20.302 287.741 20.226V21ZM283.493 15.276V14.52H287.741V15.276H283.493ZM289.138 13.29V12.3H290.02V13.29H289.138ZM289.138 21V14.52H290.02V21H289.138ZM294.525 21.18C293.881 21.18 293.331 21.034 292.875 20.742C292.419 20.45 292.069 20.046 291.825 19.53C291.581 19.014 291.459 18.422 291.459 17.754C291.459 17.074 291.583 16.478 291.831 15.966C292.079 15.454 292.431 15.056 292.887 14.772C293.347 14.484 293.893 14.34 294.525 14.34C295.173 14.34 295.725 14.486 296.181 14.778C296.641 15.066 296.991 15.468 297.231 15.984C297.475 16.496 297.597 17.086 297.597 17.754C297.597 18.434 297.475 19.032 297.231 19.548C296.987 20.06 296.635 20.46 296.175 20.748C295.715 21.036 295.165 21.18 294.525 21.18ZM294.525 20.334C295.245 20.334 295.781 20.096 296.133 19.62C296.485 19.14 296.661 18.518 296.661 17.754C296.661 16.97 296.483 16.346 296.127 15.882C295.775 15.418 295.241 15.186 294.525 15.186C294.041 15.186 293.641 15.296 293.325 15.516C293.013 15.732 292.779 16.034 292.623 16.422C292.471 16.806 292.395 17.25 292.395 17.754C292.395 18.534 292.575 19.16 292.935 19.632C293.295 20.1 293.825 20.334 294.525 20.334ZM303.6 21V17.694C303.6 17.334 303.566 17.004 303.498 16.704C303.43 16.4 303.32 16.136 303.168 15.912C303.02 15.684 302.826 15.508 302.586 15.384C302.35 15.26 302.062 15.198 301.722 15.198C301.41 15.198 301.134 15.252 300.894 15.36C300.658 15.468 300.458 15.624 300.294 15.828C300.134 16.028 300.012 16.272 299.928 16.56C299.844 16.848 299.802 17.176 299.802 17.544L299.178 17.406C299.178 16.742 299.294 16.184 299.526 15.732C299.758 15.28 300.078 14.938 300.486 14.706C300.894 14.474 301.362 14.358 301.89 14.358C302.278 14.358 302.616 14.418 302.904 14.538C303.196 14.658 303.442 14.82 303.642 15.024C303.846 15.228 304.01 15.462 304.134 15.726C304.258 15.986 304.348 16.264 304.404 16.56C304.46 16.852 304.488 17.144 304.488 17.436V21H303.6ZM298.914 21V14.52H299.712V16.116H299.802V21H298.914Z" fill="#4D5254"/>
<line x1="16.5" y1="36.5" x2="305.5" y2="36.5" stroke="#CFCFCF"/>
<g clip-path="url(#clip1_74_184)">
<path opacity="0.07" d="M93.1053 49H72.8947C71.8211 49 71 49.7583 71 50.75V61.25C71 62.2417 71.8842 63 72.8947 63H93.1053C94.1789 63 95 62.2417 95 61.25V50.75C95 49.7583 94.1158 49 93.1053 49Z" fill="black"/>
<path d="M93.1055 49.5833C93.8003 49.5833 94.3687 50.1083 94.3687 50.75V61.25C94.3687 61.8916 93.8003 62.4166 93.1055 62.4166H72.895C72.2003 62.4166 71.6318 61.8916 71.6318 61.25V50.75C71.6318 50.1083 72.2003 49.5833 72.895 49.5833H93.1055Z" fill="white"/>
<path d="M88.874 54.8917H88.6845C88.4319 55.475 88.2424 55.7667 88.0529 56.6417H89.2529C89.0635 55.7667 89.0635 55.3584 88.874 54.8917ZM90.7056 58.3334H89.6319C89.5687 58.3334 89.5687 58.3334 89.5056 58.275L89.3793 57.75L89.3161 57.6334H87.8003C87.7372 57.6334 87.674 57.6334 87.674 57.75L87.4845 58.275C87.4845 58.3334 87.4214 58.3334 87.4214 58.3334H86.095L86.2214 58.0417L88.0529 54.075C88.0529 53.7834 88.2424 53.6667 88.5582 53.6667H89.5056C89.5687 53.6667 89.6319 53.6667 89.6319 53.7834L90.5161 57.575C90.5793 57.8084 90.6424 57.9834 90.6424 58.2167C90.7056 58.275 90.7056 58.275 90.7056 58.3334ZM82.2424 58.1584L82.495 57.1084C82.5582 57.1084 82.6214 57.1667 82.6214 57.1667C83.0635 57.3417 83.5056 57.4584 83.9477 57.4C84.074 57.4 84.2635 57.3417 84.3898 57.2834C84.7056 57.1667 84.7056 56.875 84.4529 56.6417C84.3266 56.525 84.1371 56.4667 83.9477 56.35C83.695 56.2334 83.4424 56.1167 83.2529 55.9417C82.495 55.3584 82.7477 54.5417 83.1898 54.1334C83.5687 53.9 83.7582 53.6667 84.2635 53.6667C85.0214 53.6667 85.8424 53.6667 86.2214 53.7834H86.2845C86.2214 54.1334 86.1582 54.425 86.0319 54.775C85.7161 54.6584 85.4003 54.5417 85.0845 54.5417C84.895 54.5417 84.7056 54.5417 84.5161 54.6C84.3898 54.6 84.3266 54.6584 84.2635 54.7167C84.1371 54.8334 84.1371 55.0084 84.2635 55.125L84.5793 55.3584C84.8319 55.475 85.0845 55.5917 85.274 55.7084C85.5898 55.8834 85.9056 56.175 85.9687 56.525C86.095 57.05 85.9056 57.5167 85.4003 57.8667C85.0845 58.1 84.9582 58.2167 84.5161 58.2167C83.6319 58.2167 82.9372 58.275 82.3687 58.1C82.3056 58.2167 82.3056 58.2167 82.2424 58.1584ZM80.0319 58.3334C80.095 57.925 80.095 57.925 80.1582 57.75C80.474 56.4667 80.7898 55.125 81.0424 53.8417C81.1056 53.725 81.1056 53.6667 81.2319 53.6667H82.3687C82.2424 54.3667 82.1161 54.8917 81.9266 55.5334C81.7371 56.4084 81.5477 57.2834 81.295 58.1584C81.295 58.275 81.2319 58.275 81.1056 58.275M74.1582 53.7834C74.1582 53.725 74.2845 53.6667 74.3477 53.6667H76.495C76.8108 53.6667 77.0635 53.8417 77.1266 54.1334L77.695 56.7C77.695 56.7584 77.695 56.7584 77.7582 56.8167C77.7582 56.7584 77.8214 56.7584 77.8214 56.7584L79.1477 53.7834C79.0845 53.725 79.1477 53.6667 79.2108 53.6667H80.5372C80.5372 53.725 80.5372 53.725 80.474 53.7834L78.5161 58.0417C78.4529 58.1584 78.4529 58.2167 78.3898 58.275C78.3266 58.3334 78.2003 58.275 78.074 58.275H77.1266C77.0635 58.275 77.0003 58.275 77.0003 58.1584L75.9898 54.5417C75.8635 54.425 75.674 54.25 75.4214 54.1917C75.0424 54.0167 74.3477 53.9 74.2214 53.9L74.1582 53.7834Z" fill="#142688"/>
</g>
<g clip-path="url(#clip2_74_184)">
<path opacity="0.07" d="M119.105 49H98.8947C97.8211 49 97 49.7583 97 50.75V61.25C97 62.2417 97.8842 63 98.8947 63H119.105C120.179 63 121 62.2417 121 61.25V50.75C121 49.7583 120.116 49 119.105 49Z" fill="black"/>
<path d="M119.106 49.5833C119.8 49.5833 120.369 50.1083 120.369 50.75V61.25C120.369 61.8916 119.8 62.4166 119.106 62.4166H98.895C98.2003 62.4166 97.6318 61.8916 97.6318 61.25V50.75C97.6318 50.1083 98.2003 49.5833 98.895 49.5833H119.106Z" fill="#5A31F4"/>
<path d="M110.504 54.666C110.504 55.639 109.76 56.3332 108.722 56.3332H107.744C107.728 56.3334 107.712 56.3379 107.698 56.3462C107.685 56.3545 107.674 56.3662 107.668 56.3798C107.664 56.3889 107.662 56.3986 107.662 56.4084V57.6871C107.662 57.697 107.659 57.7069 107.655 57.716C107.651 57.7252 107.645 57.7335 107.638 57.7405C107.63 57.7475 107.621 57.753 107.611 57.7568C107.601 57.7605 107.59 57.7624 107.58 57.7623H106.895C106.873 57.7623 106.852 57.7544 106.837 57.7401C106.821 57.7259 106.813 57.7066 106.813 57.6865V53.0753C106.813 53.0602 106.817 53.0455 106.826 53.033C106.835 53.0205 106.848 53.0108 106.863 53.0053C106.873 53.0014 106.884 52.9994 106.895 52.9994H108.726C109.76 52.9994 110.504 53.6936 110.504 54.6666V54.666ZM109.65 54.666C109.65 54.1072 109.234 53.6988 108.671 53.6988H107.744C107.733 53.6988 107.722 53.7008 107.712 53.7046C107.702 53.7084 107.693 53.714 107.686 53.7211C107.678 53.7281 107.672 53.7365 107.668 53.7457C107.664 53.7549 107.662 53.7647 107.662 53.7747V55.5538C107.661 55.5638 107.664 55.5737 107.668 55.5829C107.672 55.5922 107.678 55.6005 107.686 55.6075C107.693 55.6146 107.702 55.6202 107.712 55.624C107.722 55.6278 107.733 55.6297 107.744 55.6297H108.671C109.234 55.6326 109.65 55.2243 109.65 54.666ZM110.707 56.8774C110.7 56.728 110.734 56.5793 110.805 56.445C110.876 56.3107 110.983 56.1952 111.116 56.1092C111.383 55.9248 111.8 55.8292 112.414 55.8093L113.066 55.7883V55.6116C113.066 55.2575 112.807 55.1082 112.392 55.1082C111.976 55.1082 111.713 55.2429 111.653 55.464C111.647 55.4795 111.637 55.4931 111.623 55.5026C111.608 55.5121 111.591 55.517 111.574 55.5165H110.928C110.91 55.5167 110.893 55.5116 110.879 55.5019C110.864 55.4922 110.854 55.4785 110.849 55.4628C110.845 55.4525 110.844 55.4415 110.846 55.4308C110.942 54.9069 111.417 54.5091 112.421 54.5091C113.49 54.5091 113.876 54.9658 113.876 55.8368V57.6871C113.876 57.6971 113.873 57.707 113.869 57.7162C113.865 57.7254 113.859 57.7338 113.851 57.7408C113.843 57.7477 113.834 57.7533 113.824 57.757C113.814 57.7607 113.803 57.7625 113.792 57.7623H113.142C113.12 57.7623 113.099 57.7544 113.084 57.7401C113.068 57.7259 113.06 57.7066 113.06 57.6865V57.5488C113.06 57.5374 113.056 57.5262 113.049 57.5167C113.043 57.5072 113.033 57.4999 113.021 57.4958C113.01 57.4916 112.997 57.4906 112.985 57.4929C112.973 57.4952 112.962 57.5006 112.954 57.5086C112.758 57.7034 112.443 57.844 111.939 57.844C111.197 57.844 110.707 57.4899 110.707 56.8774ZM113.066 56.4767V56.3332L112.22 56.374C111.775 56.395 111.516 56.5642 111.516 56.85C111.516 57.109 111.754 57.2525 112.169 57.2525C112.733 57.2525 113.066 56.9725 113.066 56.4767ZM114.529 59.16V58.6239C114.529 58.6127 114.532 58.6016 114.537 58.5915C114.542 58.5815 114.55 58.5726 114.56 58.5656C114.569 58.5585 114.58 58.5535 114.592 58.5508C114.604 58.548 114.616 58.5477 114.628 58.5498C114.728 58.5668 114.829 58.5755 114.93 58.5755C115.105 58.5843 115.277 58.5387 115.42 58.446C115.562 58.3533 115.667 58.2189 115.717 58.0645L115.759 57.9414C115.765 57.9248 115.765 57.9067 115.759 57.8901L114.404 54.6987C114.396 54.6812 114.396 54.6616 114.403 54.6437C114.41 54.6259 114.424 54.6112 114.442 54.6024C114.454 54.5965 114.468 54.5935 114.481 54.5937H115.138C115.155 54.5937 115.172 54.5985 115.185 54.6073C115.199 54.6162 115.21 54.6287 115.216 54.6433L116.136 56.8943C116.141 56.9095 116.152 56.9225 116.166 56.9317C116.18 56.941 116.197 56.9458 116.214 56.9457C116.232 56.9457 116.249 56.9407 116.263 56.9315C116.277 56.9223 116.288 56.9094 116.293 56.8943L117.092 54.6497C117.098 54.6342 117.108 54.6207 117.123 54.6113C117.137 54.6018 117.154 54.5969 117.172 54.5972H117.852C117.872 54.5973 117.892 54.6042 117.907 54.6166C117.922 54.6291 117.932 54.6462 117.935 54.6648C117.936 54.6773 117.935 54.6899 117.93 54.7016L116.48 58.2459C116.147 59.0702 115.575 59.2802 114.946 59.2802C114.826 59.2832 114.707 59.2703 114.591 59.2417C114.572 59.2373 114.555 59.2266 114.543 59.2117C114.532 59.1967 114.526 59.1783 114.528 59.16H114.529ZM102.412 52.7334C101.55 52.7275 100.718 53.0252 100.086 53.5658C100.059 53.5884 100.042 53.6195 100.039 53.653C100.035 53.6864 100.046 53.7199 100.068 53.7467L100.458 54.2361C100.47 54.2526 100.487 54.2663 100.506 54.2763C100.525 54.2863 100.546 54.2923 100.568 54.2938C100.59 54.2954 100.612 54.2925 100.632 54.2853C100.653 54.2782 100.671 54.2669 100.686 54.2524C100.914 54.0439 101.184 53.8793 101.481 53.7682C101.778 53.657 102.095 53.6015 102.416 53.6049C103.755 53.6049 104.454 54.5289 104.454 55.4424C104.454 56.4341 103.719 57.1329 102.663 57.1463C101.847 57.1463 101.232 56.6505 101.232 55.9948C101.233 55.829 101.274 55.6655 101.352 55.5161C101.429 55.3668 101.543 55.2353 101.682 55.1315C101.712 55.1089 101.731 55.0764 101.735 55.041C101.739 55.0056 101.728 54.9702 101.703 54.9425L101.293 54.4671C101.28 54.4525 101.265 54.4403 101.247 54.4314C101.23 54.4224 101.21 54.4168 101.19 54.415C101.17 54.4131 101.15 54.415 101.131 54.4206C101.112 54.4261 101.094 54.4352 101.079 54.4473C100.827 54.6335 100.624 54.8693 100.484 55.1373C100.344 55.4048 100.271 55.6979 100.271 55.9948C100.271 57.1236 101.316 58.0085 102.655 58.0155H102.674C104.264 57.9968 105.413 56.9165 105.413 55.4401C105.413 54.1293 104.36 52.7334 102.412 52.7334Z" fill="white"/>
</g>
<g clip-path="url(#clip3_74_184)">
<path opacity="0.07" d="M145.105 49H124.895C123.821 49 123 49.7583 123 50.75V61.25C123 62.2417 123.884 63 124.895 63H145.105C146.179 63 147 62.2417 147 61.25V50.75C147 49.7583 146.116 49 145.105 49Z" fill="black"/>
<path d="M145.106 49.5833C145.8 49.5833 146.369 50.1083 146.369 50.75V61.25C146.369 61.8916 145.8 62.4166 145.106 62.4166H124.895C124.2 62.4166 123.632 61.8916 123.632 61.25V50.75C123.632 50.1083 124.2 49.5833 124.895 49.5833H145.106Z" fill="white"/>
<path d="M138.094 53.8417C138.221 53.2584 138.094 52.85 137.715 52.5C137.337 52.0917 136.642 51.9167 135.758 51.9167H133.168C132.979 51.9167 132.852 52.0334 132.789 52.2084L131.842 58.1C131.842 58.2167 131.905 58.3334 132.031 58.3334H133.737L133.989 56.35L135.126 55.0667L138.094 53.8417Z" fill="#003087"/>
<path d="M138.095 53.8417L137.969 53.9583C137.653 55.5917 136.579 56.175 135.063 56.175H134.369C134.179 56.175 134.053 56.2917 133.99 56.4667L133.611 58.7417L133.484 59.325C133.484 59.4417 133.548 59.5583 133.674 59.5583H135C135.19 59.5583 135.316 59.4417 135.316 59.325V59.2667L135.569 57.8667V57.8083C135.569 57.6917 135.758 57.575 135.884 57.575H136.074C137.4 57.575 138.411 57.1083 138.663 55.7083C138.79 55.125 138.726 54.6583 138.411 54.3083C138.348 54.0167 138.221 53.9 138.095 53.8417Z" fill="#3086C8"/>
<path d="M137.716 53.725C137.652 53.6667 137.589 53.6667 137.526 53.6667C137.463 53.6667 137.4 53.6667 137.337 53.6083C137.147 53.55 136.895 53.55 136.642 53.55H134.747C134.684 53.55 134.621 53.55 134.621 53.6083C134.495 53.6667 134.431 53.725 134.431 53.8417L133.989 56.4083V56.4667C133.989 56.2917 134.179 56.175 134.368 56.175H135.189C136.768 56.175 137.779 55.5917 138.095 53.9583V53.8417C138.031 53.7833 137.905 53.725 137.779 53.725H137.716Z" fill="#012169"/>
</g>
<g clip-path="url(#clip4_74_184)">
<path opacity="0.07" d="M171.105 49H150.895C149.821 49 149 49.7583 149 50.75V61.25C149 62.2417 149.884 63 150.895 63H171.105C172.179 63 173 62.2417 173 61.25V50.75C173 49.7583 172.116 49 171.105 49Z" fill="black"/>
<path d="M171.106 49.5833C171.8 49.5833 172.369 50.1083 172.369 50.75V61.25C172.369 61.8916 171.8 62.4166 171.106 62.4166H150.895C150.2 62.4166 149.632 61.8916 149.632 61.25V50.75C149.632 50.1083 150.2 49.5833 150.895 49.5833H171.106Z" fill="white"/>
<path d="M158.474 60.0834C160.915 60.0834 162.895 58.2552 162.895 56C162.895 53.7449 160.915 51.9167 158.474 51.9167C156.032 51.9167 154.053 53.7449 154.053 56C154.053 58.2552 156.032 60.0834 158.474 60.0834Z" fill="#EB001B"/>
<path d="M163.527 60.0834C165.968 60.0834 167.948 58.2552 167.948 56C167.948 53.7449 165.968 51.9167 163.527 51.9167C161.085 51.9167 159.105 53.7449 159.105 56C159.105 58.2552 161.085 60.0834 163.527 60.0834Z" fill="#FFC000"/>
<path d="M162.895 56C162.895 54.6 162.137 53.375 161 52.675C159.863 53.4333 159.105 54.6583 159.105 56C159.105 57.3417 159.863 58.625 161 59.325C162.137 58.625 162.895 57.4 162.895 56Z" fill="#FF5F00"/>
</g>
<g clip-path="url(#clip5_74_184)">
<path opacity="0.07" d="M197.105 49H176.895C175.821 49 175 49.7583 175 50.75V61.25C175 62.2417 175.884 63 176.895 63H197.105C198.179 63 199 62.2417 199 61.25V50.75C199 49.7583 198.116 49 197.105 49Z" fill="black"/>
<path d="M197.106 49.5833C197.8 49.5833 198.369 50.1083 198.369 50.75V61.25C198.369 61.8916 197.8 62.4166 197.106 62.4166H176.895C176.2 62.4166 175.632 61.8916 175.632 61.25V50.75C175.632 50.1083 176.2 49.5833 176.895 49.5833H197.106Z" fill="white"/>
<path d="M186.427 55.9861V57.8527H185.784V53.2444H187.484C187.687 53.2412 187.89 53.2752 188.079 53.3445C188.268 53.4138 188.441 53.517 188.587 53.6481C188.725 53.7673 188.837 53.9105 188.915 54.0696C188.994 54.2287 189.037 54.4004 189.044 54.5751C189.05 54.7498 189.019 54.9239 188.953 55.0875C188.887 55.2511 188.786 55.4011 188.657 55.5287L188.587 55.5964C188.29 55.8572 187.894 55.9989 187.484 55.9896L186.427 55.9861ZM186.427 53.8091V55.4354H187.5C187.738 55.4424 187.968 55.3567 188.134 55.1997C188.254 55.0849 188.334 54.9403 188.365 54.7837C188.396 54.6272 188.376 54.4657 188.308 54.3194C188.241 54.1731 188.128 54.0483 187.984 53.9607C187.84 53.8731 187.672 53.8264 187.5 53.8266L186.427 53.8091ZM190.522 54.5954C190.933 54.5779 191.334 54.7051 191.645 54.953C191.926 55.2038 192.076 55.5538 192.056 55.9149V57.8597H191.444V57.4129H191.413C191.303 57.5805 191.148 57.7188 190.963 57.814C190.777 57.9092 190.568 57.9582 190.356 57.956C190.01 57.9663 189.672 57.8553 189.411 57.6451C189.288 57.5519 189.188 57.4339 189.121 57.3001C189.054 57.1663 189.021 57.0202 189.024 56.8727C189.017 56.7238 189.048 56.5753 189.116 56.4398C189.183 56.3042 189.284 56.1855 189.411 56.0934C189.723 55.8864 190.1 55.7808 190.484 55.793C190.81 55.7813 191.134 55.8472 191.425 55.9861V55.8647C191.427 55.7644 191.404 55.665 191.359 55.5739C191.313 55.4829 191.246 55.4026 191.161 55.3392C190.992 55.1972 190.771 55.1204 190.542 55.1245C190.377 55.123 190.213 55.1607 190.067 55.2339C189.922 55.3071 189.798 55.4134 189.709 55.5427L189.144 55.2137C189.298 55.0106 189.505 54.8472 189.746 54.7389C189.987 54.6307 190.255 54.5813 190.522 54.5954ZM189.709 56.8867C189.708 56.9623 189.727 57.037 189.764 57.1044C189.801 57.1717 189.855 57.2296 189.922 57.2729C190.063 57.3756 190.238 57.4298 190.418 57.4263C190.689 57.4257 190.949 57.3272 191.142 57.151C191.334 56.9842 191.444 56.7514 191.444 56.5076C191.201 56.3479 190.905 56.2708 190.608 56.2894C190.376 56.281 190.148 56.3411 189.957 56.4609C189.881 56.5078 189.819 56.5711 189.776 56.6453C189.733 56.7196 189.71 56.8025 189.709 56.8867ZM195.574 54.6992L193.433 59.2434H192.771L193.58 57.6521L192.176 54.6992H192.872L193.89 56.9655L194.881 54.6992H195.574Z" fill="#5F6368"/>
<path d="M183.834 55.5824C183.834 55.4027 183.819 55.223 183.788 55.0457H181.078V56.0648H182.626C182.595 56.2268 182.528 56.3812 182.43 56.5188C182.333 56.6564 182.206 56.7744 182.058 56.8657V57.5272H182.982C183.263 57.276 183.484 56.9731 183.631 56.6381C183.778 56.3031 183.847 55.9435 183.834 55.5824Z" fill="#4285F4"/>
<path d="M181.081 58.1704C181.779 58.1881 182.459 57.9593 182.982 57.5305L182.056 56.8655C181.833 56.9973 181.581 57.0804 181.319 57.1087C181.056 57.1369 180.79 57.1095 180.541 57.0285C180.292 56.9475 180.066 56.8151 179.88 56.6413C179.695 56.4675 179.554 56.2569 179.47 56.0255H178.521V56.708C178.759 57.1473 179.124 57.5168 179.576 57.7751C180.028 58.0334 180.549 58.1703 181.081 58.1704Z" fill="#34A853"/>
<path d="M179.471 56.0294C179.351 55.7011 179.351 55.3455 179.471 55.0173V54.3348H178.522C178.32 54.7031 178.215 55.1103 178.215 55.5233C178.215 55.9363 178.32 56.3435 178.522 56.7119L179.471 56.0294Z" fill="#FFC000"/>
<path d="M181.081 53.9236C181.489 53.9167 181.884 54.0593 182.18 54.3203L183.001 53.566C182.477 53.1122 181.783 52.8646 181.065 52.8759C180.536 52.8784 180.019 53.0159 179.57 53.2733C179.121 53.5307 178.758 53.898 178.521 54.3343L179.47 55.0173C179.581 54.7024 179.796 54.4275 180.085 54.2313C180.374 54.0351 180.722 53.9275 181.081 53.9236Z" fill="#EA4335"/>
</g>
<g clip-path="url(#clip6_74_184)">
<path d="M222.718 49H203.282C203.201 49 203.119 49 203.039 49.0004C202.97 49.0009 202.902 49.0016 202.834 49.0033C202.685 49.007 202.536 49.0152 202.389 49.0395C202.242 49.0628 202.099 49.1062 201.966 49.1683C201.698 49.2942 201.48 49.4955 201.343 49.743C201.276 49.8662 201.229 49.9981 201.204 50.1341C201.177 50.2698 201.169 50.4081 201.165 50.5453C201.163 50.6082 201.162 50.6712 201.161 50.7342C201.161 50.8087 201.161 50.8835 201.161 50.9584V61.0415C201.161 61.1164 201.161 61.191 201.161 61.2659C201.162 61.3288 201.163 61.3918 201.165 61.4549C201.169 61.5917 201.177 61.7302 201.204 61.8658C201.229 62.0018 201.276 62.1336 201.343 62.2568C201.411 62.3799 201.499 62.4922 201.605 62.5898C201.711 62.6875 201.832 62.7691 201.965 62.8315C202.101 62.8954 202.24 62.9359 202.389 62.9606C202.536 62.9848 202.685 62.993 202.834 62.9967C202.902 62.9981 202.97 62.9989 203.039 62.9993C203.119 62.9999 203.201 62.9999 203.282 62.9999H222.718C222.799 62.9999 222.88 62.9999 222.961 62.9993C223.029 62.9991 223.097 62.9981 223.165 62.9967C223.314 62.993 223.464 62.9848 223.611 62.9606C223.758 62.9373 223.901 62.8938 224.034 62.8315C224.302 62.7055 224.52 62.5043 224.656 62.2568C224.725 62.1317 224.769 62.0036 224.795 61.8658C224.822 61.7302 224.831 61.5917 224.835 61.4549C224.836 61.3918 224.837 61.3288 224.838 61.2659C224.838 61.191 224.838 61.1164 224.838 61.0415V50.9585C224.838 50.8836 224.838 50.8088 224.838 50.7341C224.837 50.6711 224.836 50.6082 224.835 50.5453C224.831 50.4081 224.822 50.2698 224.795 50.1341C224.77 49.998 224.723 49.8662 224.656 49.743C224.52 49.4955 224.302 49.2943 224.034 49.1683C223.9 49.1063 223.758 49.0629 223.611 49.0396C223.464 49.0152 223.314 49.0071 223.165 49.0034C223.097 49.0018 223.029 49.0009 222.961 49.0005C222.88 49 222.799 49 222.718 49Z" fill="#E4E4E4"/>
<path d="M222.718 49.4667L222.957 49.4671C223.021 49.4675 223.086 49.4681 223.151 49.4697C223.265 49.4726 223.397 49.4783 223.521 49.4988C223.628 49.5166 223.718 49.5437 223.805 49.5844C223.977 49.6656 224.118 49.7955 224.206 49.9553C224.249 50.0345 224.279 50.1172 224.298 50.2172C224.32 50.3301 224.326 50.4528 224.329 50.5581C224.331 50.6176 224.332 50.677 224.332 50.7378C224.333 50.8114 224.333 50.8848 224.333 50.9586V61.0416C224.333 61.1154 224.333 61.1888 224.332 61.2639C224.332 61.3233 224.331 61.3828 224.329 61.4422C224.326 61.5474 224.32 61.6701 224.298 61.7843C224.281 61.8751 224.25 61.9631 224.205 62.0452C224.117 62.205 223.977 62.3349 223.804 62.4161C223.718 62.4565 223.628 62.4836 223.522 62.5013C223.396 62.522 223.258 62.5277 223.154 62.5303C223.088 62.5317 223.023 62.5326 222.956 62.5329C222.877 62.5334 222.797 62.5334 222.718 62.5334H203.278C203.199 62.5334 203.121 62.5334 203.041 62.5329C202.976 62.5326 202.912 62.5318 202.847 62.5305C202.741 62.5278 202.603 62.522 202.478 62.5014C202.379 62.4862 202.283 62.4572 202.194 62.4155C202.108 62.3753 202.03 62.3226 201.962 62.2596C201.894 62.1968 201.837 62.1245 201.793 62.0452C201.748 61.9626 201.717 61.8742 201.701 61.7829C201.678 61.6689 201.672 61.5467 201.669 61.4423C201.668 61.3827 201.667 61.323 201.666 61.2633L201.666 61.088V50.9123L201.666 50.7373C201.667 50.6775 201.668 50.6177 201.669 50.558C201.672 50.4533 201.678 50.3311 201.701 50.2162C201.717 50.1251 201.748 50.0369 201.793 49.9545C201.837 49.8752 201.894 49.8028 201.962 49.74C202.03 49.6771 202.109 49.6245 202.194 49.5841C202.284 49.5427 202.379 49.5139 202.478 49.4988C202.601 49.4783 202.734 49.4726 202.848 49.4697C202.912 49.4682 202.977 49.4674 203.041 49.4671L203.281 49.4667H222.718Z" fill="white"/>
<path d="M207.385 53.7259C207.586 53.494 207.722 53.1826 207.686 52.8645C207.392 52.878 207.034 53.0435 206.826 53.2757C206.64 53.4744 206.475 53.7987 206.518 54.1035C206.848 54.1299 207.177 53.9513 207.385 53.7259ZM207.682 54.1631C207.203 54.1367 206.796 54.4141 206.567 54.4141C206.339 54.4141 205.988 54.1763 205.609 54.1828C205.116 54.1894 204.659 54.447 204.408 54.8566C203.894 55.6757 204.273 56.8912 204.773 57.5584C205.016 57.8887 205.309 58.2521 205.695 58.239C206.06 58.2258 206.203 58.021 206.646 58.021C207.089 58.021 207.218 58.239 207.604 58.2324C208.004 58.2258 208.254 57.9021 208.497 57.5718C208.776 57.1952 208.89 56.8319 208.898 56.8121C208.89 56.8055 208.126 56.5345 208.118 55.722C208.111 55.0416 208.719 54.7179 208.748 54.6979C208.404 54.2292 207.868 54.1763 207.682 54.1631" fill="black"/>
<path d="M212.458 53.2424C213.499 53.2424 214.224 53.9052 214.224 54.8702C214.224 55.8386 213.484 56.5049 212.432 56.5049H211.279V58.1982H210.446V53.2424H212.458ZM211.279 55.8593H212.235C212.96 55.8593 213.372 55.4987 213.372 54.8736C213.372 54.2487 212.96 53.8915 212.238 53.8915H211.279V55.8593ZM214.431 57.1712C214.431 56.5358 214.955 56.1718 215.922 56.1169L216.959 56.0585V55.7837C216.959 55.382 216.673 55.1622 216.163 55.1622C215.743 55.1622 215.438 55.3613 215.375 55.6669H214.624C214.646 55.0248 215.301 54.5577 216.186 54.5577C217.137 54.5577 217.758 55.0179 217.758 55.7323V58.198H216.989V57.6039H216.97C216.751 57.9919 216.267 58.2357 215.743 58.2357C214.97 58.2357 214.431 57.81 214.431 57.1712ZM216.959 56.8519V56.5736L216.033 56.6286C215.512 56.6595 215.241 56.838 215.241 57.1505C215.241 57.4527 215.524 57.6485 215.966 57.6485C216.531 57.6485 216.959 57.3153 216.959 56.8519ZM218.466 59.5236V58.9296C218.518 58.9363 218.644 58.9432 218.711 58.9432C219.079 58.9432 219.288 58.7992 219.414 58.428L219.489 58.2083L218.079 54.6024H218.949L219.931 57.5283H219.95L220.931 54.6024H221.779L220.318 58.3903C219.983 59.2592 219.6 59.5443 218.789 59.5443C218.726 59.5443 218.522 59.5374 218.466 59.5236Z" fill="black"/>
</g>
<g clip-path="url(#clip7_74_184)">
<path opacity="0.07" d="M249.105 49H228.895C227.821 49 227 49.7583 227 50.75V61.25C227 62.2417 227.884 63 228.895 63H249.105C250.179 63 251 62.2417 251 61.25V50.75C251 49.7583 250.116 49 249.105 49Z" fill="black"/>
<path d="M249.106 49.5833C249.8 49.5833 250.369 50.1083 250.369 50.75V61.25C250.369 61.8916 249.8 62.4166 249.106 62.4166H228.895C228.2 62.4166 227.632 61.8916 227.632 61.25V50.75C227.632 50.1083 228.2 49.5833 228.895 49.5833H249.106Z" fill="#006FCF"/>
<path d="M232.666 54.9897L233.155 56.084H232.181L232.666 54.9897ZM242.819 55.0352H240.938V55.5176H242.788V56.2404H240.942V56.7782H242.822V57.2093L244.134 55.8997L242.822 54.5347L242.819 55.0352ZM233.937 53.6702H236.46L237.02 54.7989L237.539 53.6667H244.089L244.77 54.3609L245.474 53.6667H248.482L246.259 55.9137L248.459 58.1467H245.406L244.725 57.4525L244.015 58.1467H233.335L233.023 57.4525H232.309L231.996 58.1467H229.526L231.602 53.6667H233.768L233.937 53.6702ZM239.408 54.299H237.994L237.047 56.3617L236.02 54.299H234.617V57.1049L233.316 54.299H232.057L230.553 57.5144H231.535L231.847 56.8202H233.486L233.798 57.5144H235.516V55.2189L236.622 57.5179H237.374L238.473 55.2259V57.5184H239.394L239.409 54.2984L239.408 54.299ZM245.307 55.9137L246.906 54.299H245.755L244.744 55.3059L243.766 54.299H240.043V57.5179H243.713L244.732 56.504L245.71 57.5179H246.894L245.308 55.9137H245.307Z" fill="white"/>
</g>
<defs>
<clipPath id="clip0_74_184">
<rect width="12" height="12" fill="white" transform="translate(116.5 10.5)"/>
</clipPath>
<clipPath id="clip1_74_184">
<rect width="24" height="14" fill="white" transform="translate(71 49)"/>
</clipPath>
<clipPath id="clip2_74_184">
<rect width="24" height="14" fill="white" transform="translate(97 49)"/>
</clipPath>
<clipPath id="clip3_74_184">
<rect width="24" height="14" fill="white" transform="translate(123 49)"/>
</clipPath>
<clipPath id="clip4_74_184">
<rect width="24" height="14" fill="white" transform="translate(149 49)"/>
</clipPath>
<clipPath id="clip5_74_184">
<rect width="24" height="14" fill="white" transform="translate(175 49)"/>
</clipPath>
<clipPath id="clip6_74_184">
<rect width="24" height="14" fill="white" transform="translate(201 49)"/>
</clipPath>
<clipPath id="clip7_74_184">
<rect width="24" height="14" fill="white" transform="translate(227 49)"/>
</clipPath>
</defs>
</svg>
