<svg width="126" height="17" viewBox="0 0 126 17" fill="none" xmlns="http://www.w3.org/2000/svg">
<path d="M29.0359 13.6486L26.0599 5.00862H26.9779L29.6119 12.6466L32.2639 5.00862H33.1819L30.2059 13.6486H29.0359ZM36.1092 13.8286C35.4772 13.8286 34.9292 13.6886 34.4652 13.4086C34.0052 13.1286 33.6472 12.7346 33.3912 12.2266C33.1352 11.7186 33.0072 11.1226 33.0072 10.4386C33.0072 9.73062 33.1332 9.11862 33.3852 8.60262C33.6372 8.08662 33.9912 7.68862 34.4472 7.40862C34.9072 7.12862 35.4492 6.98862 36.0732 6.98862C36.7132 6.98862 37.2592 7.13662 37.7112 7.43262C38.1632 7.72462 38.5052 8.14462 38.7372 8.69262C38.9692 9.24062 39.0752 9.89462 39.0552 10.6546H38.1552V10.3426C38.1392 9.50262 37.9572 8.86862 37.6092 8.44062C37.2652 8.01262 36.7612 7.79862 36.0972 7.79862C35.4012 7.79862 34.8672 8.02462 34.4952 8.47662C34.1272 8.92862 33.9432 9.57262 33.9432 10.4086C33.9432 11.2246 34.1272 11.8586 34.4952 12.3106C34.8672 12.7586 35.3932 12.9826 36.0732 12.9826C36.5372 12.9826 36.9412 12.8766 37.2852 12.6646C37.6332 12.4486 37.9072 12.1386 38.1072 11.7346L38.9292 12.0526C38.6732 12.6166 38.2952 13.0546 37.7952 13.3666C37.2992 13.6746 36.7372 13.8286 36.1092 13.8286ZM33.6312 10.6546V9.91662H38.5812V10.6546H33.6312ZM40.3867 13.6486V7.16862H41.1787V8.72862L41.0227 8.52462C41.0947 8.33262 41.1887 8.15662 41.3047 7.99662C41.4207 7.83262 41.5467 7.69862 41.6827 7.59462C41.8507 7.44662 42.0467 7.33462 42.2707 7.25862C42.4947 7.17862 42.7207 7.13262 42.9487 7.12062C43.1767 7.10462 43.3847 7.12062 43.5727 7.16862V7.99662C43.3367 7.93662 43.0787 7.92262 42.7987 7.95462C42.5187 7.98662 42.2607 8.09862 42.0247 8.29062C41.8087 8.45862 41.6467 8.66062 41.5387 8.89662C41.4307 9.12862 41.3587 9.37662 41.3227 9.64062C41.2867 9.90062 41.2687 10.1586 41.2687 10.4146V13.6486H40.3867ZM44.831 5.93862V4.94862H45.713V5.93862H44.831ZM44.831 13.6486V7.16862H45.713V13.6486H44.831ZM48.1537 13.6486V6.68862C48.1537 6.52062 48.1617 6.35462 48.1777 6.19062C48.1977 6.02662 48.2357 5.87062 48.2917 5.72262C48.3477 5.57062 48.4357 5.43062 48.5557 5.30262C48.6877 5.15862 48.8317 5.05462 48.9877 4.99062C49.1437 4.92262 49.3057 4.87862 49.4737 4.85862C49.6457 4.83862 49.8137 4.82862 49.9777 4.82862H50.8057V5.57262H50.0377C49.7017 5.57262 49.4497 5.65462 49.2817 5.81862C49.1177 5.98262 49.0357 6.24062 49.0357 6.59262V13.6486H48.1537ZM47.0317 7.92462V7.16862H50.8057V7.92462H47.0317ZM52.0657 5.93862V4.94862H52.9477V5.93862H52.0657ZM52.0657 13.6486V7.16862H52.9477V13.6486H52.0657ZM57.4842 13.8286C56.8522 13.8286 56.3042 13.6886 55.8402 13.4086C55.3802 13.1286 55.0222 12.7346 54.7662 12.2266C54.5102 11.7186 54.3822 11.1226 54.3822 10.4386C54.3822 9.73062 54.5082 9.11862 54.7602 8.60262C55.0122 8.08662 55.3662 7.68862 55.8222 7.40862C56.2822 7.12862 56.8242 6.98862 57.4482 6.98862C58.0882 6.98862 58.6342 7.13662 59.0862 7.43262C59.5382 7.72462 59.8802 8.14462 60.1122 8.69262C60.3442 9.24062 60.4502 9.89462 60.4302 10.6546H59.5302V10.3426C59.5142 9.50262 59.3322 8.86862 58.9842 8.44062C58.6402 8.01262 58.1362 7.79862 57.4722 7.79862C56.7762 7.79862 56.2422 8.02462 55.8702 8.47662C55.5022 8.92862 55.3182 9.57262 55.3182 10.4086C55.3182 11.2246 55.5022 11.8586 55.8702 12.3106C56.2422 12.7586 56.7682 12.9826 57.4482 12.9826C57.9122 12.9826 58.3162 12.8766 58.6602 12.6646C59.0082 12.4486 59.2822 12.1386 59.4822 11.7346L60.3042 12.0526C60.0482 12.6166 59.6702 13.0546 59.1702 13.3666C58.6742 13.6746 58.1122 13.8286 57.4842 13.8286ZM55.0062 10.6546V9.91662H59.9562V10.6546H55.0062ZM64.2757 13.8286C63.6717 13.8286 63.1557 13.6786 62.7277 13.3786C62.2997 13.0746 61.9717 12.6646 61.7437 12.1486C61.5157 11.6326 61.4017 11.0506 61.4017 10.4026C61.4017 9.75862 61.5137 9.17862 61.7377 8.66262C61.9657 8.14662 62.2917 7.73862 62.7157 7.43862C63.1397 7.13862 63.6477 6.98862 64.2397 6.98862C64.8477 6.98862 65.3597 7.13662 65.7757 7.43262C66.1917 7.72862 66.5057 8.13462 66.7177 8.65062C66.9337 9.16262 67.0417 9.74662 67.0417 10.4026C67.0417 11.0466 66.9357 11.6286 66.7237 12.1486C66.5117 12.6646 66.1997 13.0746 65.7877 13.3786C65.3757 13.6786 64.8717 13.8286 64.2757 13.8286ZM64.3657 13.0066C64.8257 13.0066 65.2057 12.8946 65.5057 12.6706C65.8057 12.4466 66.0297 12.1386 66.1777 11.7466C66.3257 11.3506 66.3997 10.9026 66.3997 10.4026C66.3997 9.89462 66.3257 9.44662 66.1777 9.05862C66.0297 8.66662 65.8057 8.36062 65.5057 8.14062C65.2097 7.92062 64.8357 7.81062 64.3837 7.81062C63.9197 7.81062 63.5357 7.92462 63.2317 8.15262C62.9277 8.38062 62.7017 8.69062 62.5537 9.08262C62.4097 9.47462 62.3377 9.91462 62.3377 10.4026C62.3377 10.8946 62.4117 11.3386 62.5597 11.7346C62.7117 12.1266 62.9377 12.4366 63.2377 12.6646C63.5377 12.8926 63.9137 13.0066 64.3657 13.0066ZM66.3997 13.6486V8.77062H66.3037V5.00862H67.1917V13.6486H66.3997ZM74.7754 13.8286C73.9154 13.8286 73.1894 13.6386 72.5974 13.2586C72.0054 12.8746 71.5574 12.3446 71.2534 11.6686C70.9494 10.9926 70.7974 10.2126 70.7974 9.32862C70.7974 8.44462 70.9494 7.66462 71.2534 6.98862C71.5574 6.31262 72.0054 5.78462 72.5974 5.40462C73.1894 5.02062 73.9154 4.82862 74.7754 4.82862C75.7794 4.82862 76.5994 5.08662 77.2354 5.60262C77.8714 6.11462 78.3074 6.80262 78.5434 7.66662L77.6434 7.90062C77.4594 7.21662 77.1294 6.67462 76.6534 6.27462C76.1774 5.87462 75.5514 5.67462 74.7754 5.67462C74.0994 5.67462 73.5374 5.82862 73.0894 6.13662C72.6414 6.44462 72.3034 6.87462 72.0754 7.42662C71.8514 7.97462 71.7354 8.60862 71.7274 9.32862C71.7234 10.0486 71.8334 10.6826 72.0574 11.2306C72.2854 11.7786 72.6254 12.2086 73.0774 12.5206C73.5334 12.8286 74.0994 12.9826 74.7754 12.9826C75.5514 12.9826 76.1774 12.7826 76.6534 12.3826C77.1294 11.9786 77.4594 11.4366 77.6434 10.7566L78.5434 10.9906C78.3074 11.8546 77.8714 12.5446 77.2354 13.0606C76.5994 13.5726 75.7794 13.8286 74.7754 13.8286ZM82.3452 13.8106C81.9572 13.8106 81.6172 13.7506 81.3252 13.6306C81.0372 13.5106 80.7912 13.3486 80.5872 13.1446C80.3872 12.9406 80.2252 12.7086 80.1012 12.4486C79.9772 12.1846 79.8872 11.9066 79.8312 11.6146C79.7752 11.3186 79.7472 11.0246 79.7472 10.7326V7.16862H80.6352V10.4746C80.6352 10.8306 80.6692 11.1606 80.7372 11.4646C80.8052 11.7686 80.9132 12.0346 81.0612 12.2626C81.2132 12.4866 81.4072 12.6606 81.6432 12.7846C81.8832 12.9086 82.1732 12.9706 82.5132 12.9706C82.8252 12.9706 83.0992 12.9166 83.3352 12.8086C83.5752 12.7006 83.7752 12.5466 83.9352 12.3466C84.0992 12.1426 84.2232 11.8966 84.3072 11.6086C84.3912 11.3166 84.4332 10.9886 84.4332 10.6246L85.0572 10.7626C85.0572 11.4266 84.9412 11.9846 84.7092 12.4366C84.4772 12.8886 84.1572 13.2306 83.7492 13.4626C83.3412 13.6946 82.8732 13.8106 82.3452 13.8106ZM84.5232 13.6486V12.0526H84.4332V7.16862H85.3152V13.6486H84.5232ZM89.4102 13.8226C88.6502 13.8226 88.0242 13.6586 87.5322 13.3306C87.0442 13.0026 86.7442 12.5466 86.6322 11.9626L87.5322 11.8126C87.6282 12.1806 87.8462 12.4746 88.1862 12.6946C88.5302 12.9106 88.9542 13.0186 89.4582 13.0186C89.9502 13.0186 90.3382 12.9166 90.6222 12.7126C90.9062 12.5046 91.0482 12.2226 91.0482 11.8666C91.0482 11.6666 91.0022 11.5046 90.9102 11.3806C90.8222 11.2526 90.6402 11.1346 90.3642 11.0266C90.0882 10.9186 89.6762 10.7906 89.1282 10.6426C88.5402 10.4826 88.0802 10.3226 87.7482 10.1626C87.4162 10.0026 87.1802 9.81862 87.0402 9.61062C86.9002 9.39862 86.8302 9.14062 86.8302 8.83662C86.8302 8.46862 86.9342 8.14662 87.1422 7.87062C87.3502 7.59062 87.6382 7.37462 88.0062 7.22262C88.3742 7.06662 88.8022 6.98862 89.2902 6.98862C89.7782 6.98862 90.2142 7.06862 90.5982 7.22862C90.9862 7.38462 91.2982 7.60462 91.5342 7.88862C91.7702 8.17262 91.9102 8.50262 91.9542 8.87862L91.0542 9.04062C90.9942 8.66062 90.8042 8.36062 90.4842 8.14062C90.1682 7.91662 89.7662 7.80062 89.2782 7.79262C88.8182 7.78062 88.4442 7.86862 88.1562 8.05662C87.8682 8.24062 87.7242 8.48662 87.7242 8.79462C87.7242 8.96662 87.7762 9.11462 87.8802 9.23862C87.9842 9.35862 88.1722 9.47262 88.4442 9.58062C88.7202 9.68862 89.1122 9.80662 89.6202 9.93462C90.2162 10.0866 90.6842 10.2466 91.0242 10.4146C91.3642 10.5826 91.6062 10.7806 91.7502 11.0086C91.8942 11.2366 91.9662 11.5186 91.9662 11.8546C91.9662 12.4666 91.7382 12.9486 91.2822 13.3006C90.8302 13.6486 90.2062 13.8226 89.4102 13.8226ZM96.8249 13.6486C96.4609 13.7246 96.1009 13.7546 95.7449 13.7386C95.3929 13.7226 95.0769 13.6466 94.7969 13.5106C94.5209 13.3746 94.3109 13.1626 94.1669 12.8746C94.0509 12.6346 93.9869 12.3926 93.9749 12.1486C93.9669 11.9006 93.9629 11.6186 93.9629 11.3026V5.36862H94.8389V11.2666C94.8389 11.5386 94.8409 11.7666 94.8449 11.9506C94.8529 12.1306 94.8949 12.2906 94.9709 12.4306C95.1149 12.6986 95.3429 12.8586 95.6549 12.9106C95.9709 12.9626 96.3609 12.9506 96.8249 12.8746V13.6486ZM92.5769 7.92462V7.16862H96.8249V7.92462H92.5769ZM100.573 13.8286C99.9292 13.8286 99.3792 13.6826 98.9232 13.3906C98.4672 13.0986 98.1172 12.6946 97.8732 12.1786C97.6292 11.6626 97.5072 11.0706 97.5072 10.4026C97.5072 9.72262 97.6312 9.12662 97.8792 8.61462C98.1272 8.10262 98.4792 7.70462 98.9352 7.42062C99.3952 7.13262 99.9412 6.98862 100.573 6.98862C101.221 6.98862 101.773 7.13462 102.229 7.42662C102.689 7.71462 103.039 8.11662 103.279 8.63262C103.523 9.14462 103.645 9.73462 103.645 10.4026C103.645 11.0826 103.523 11.6806 103.279 12.1966C103.035 12.7086 102.683 13.1086 102.223 13.3966C101.763 13.6846 101.213 13.8286 100.573 13.8286ZM100.573 12.9826C101.293 12.9826 101.829 12.7446 102.181 12.2686C102.533 11.7886 102.709 11.1666 102.709 10.4026C102.709 9.61862 102.531 8.99462 102.175 8.53062C101.823 8.06662 101.289 7.83462 100.573 7.83462C100.089 7.83462 99.6892 7.94462 99.3732 8.16462C99.0612 8.38062 98.8272 8.68262 98.6712 9.07062C98.5192 9.45462 98.4432 9.89862 98.4432 10.4026C98.4432 11.1826 98.6232 11.8086 98.9832 12.2806C99.3432 12.7486 99.8732 12.9826 100.573 12.9826ZM112.697 13.6486L112.703 9.39462C112.703 8.89462 112.563 8.50262 112.283 8.21862C112.007 7.93062 111.655 7.78662 111.227 7.78662C110.983 7.78662 110.745 7.84262 110.513 7.95462C110.281 8.06662 110.089 8.24662 109.937 8.49462C109.789 8.74262 109.715 9.06662 109.715 9.46662L109.193 9.31662C109.181 8.85262 109.271 8.44662 109.463 8.09862C109.659 7.75062 109.927 7.48062 110.267 7.28862C110.611 7.09262 110.999 6.99462 111.431 6.99462C112.083 6.99462 112.605 7.19662 112.997 7.60062C113.389 8.00062 113.585 8.54262 113.585 9.22662L113.579 13.6486H112.697ZM104.963 13.6486V7.16862H105.755V8.76462H105.851V13.6486H104.963ZM108.839 13.6486L108.845 9.45462C108.845 8.93862 108.707 8.53262 108.431 8.23662C108.159 7.93662 107.799 7.78662 107.351 7.78662C106.903 7.78662 106.541 7.94062 106.265 8.24862C105.989 8.55262 105.851 8.95862 105.851 9.46662L105.323 9.17862C105.323 8.76262 105.421 8.39062 105.617 8.06262C105.813 7.73062 106.081 7.47062 106.421 7.28262C106.761 7.09062 107.147 6.99462 107.579 6.99462C107.991 6.99462 108.357 7.08262 108.677 7.25862C109.001 7.43462 109.255 7.69062 109.439 8.02662C109.623 8.36262 109.715 8.77062 109.715 9.25062L109.709 13.6486H108.839ZM117.847 13.8286C117.215 13.8286 116.667 13.6886 116.203 13.4086C115.743 13.1286 115.385 12.7346 115.129 12.2266C114.873 11.7186 114.745 11.1226 114.745 10.4386C114.745 9.73062 114.871 9.11862 115.123 8.60262C115.375 8.08662 115.729 7.68862 116.185 7.40862C116.645 7.12862 117.187 6.98862 117.811 6.98862C118.451 6.98862 118.997 7.13662 119.449 7.43262C119.901 7.72462 120.243 8.14462 120.475 8.69262C120.707 9.24062 120.813 9.89462 120.793 10.6546H119.893V10.3426C119.877 9.50262 119.695 8.86862 119.347 8.44062C119.003 8.01262 118.499 7.79862 117.835 7.79862C117.139 7.79862 116.605 8.02462 116.233 8.47662C115.865 8.92862 115.681 9.57262 115.681 10.4086C115.681 11.2246 115.865 11.8586 116.233 12.3106C116.605 12.7586 117.131 12.9826 117.811 12.9826C118.275 12.9826 118.679 12.8766 119.023 12.6646C119.371 12.4486 119.645 12.1386 119.845 11.7346L120.667 12.0526C120.411 12.6166 120.033 13.0546 119.533 13.3666C119.037 13.6746 118.475 13.8286 117.847 13.8286ZM115.369 10.6546V9.91662H120.319V10.6546H115.369ZM122.125 13.6486V7.16862H122.917V8.72862L122.761 8.52462C122.833 8.33262 122.927 8.15662 123.043 7.99662C123.159 7.83262 123.285 7.69862 123.421 7.59462C123.589 7.44662 123.785 7.33462 124.009 7.25862C124.233 7.17862 124.459 7.13262 124.687 7.12062C124.915 7.10462 125.123 7.12062 125.311 7.16862V7.99662C125.075 7.93662 124.817 7.92262 124.537 7.95462C124.257 7.98662 123.999 8.09862 123.763 8.29062C123.547 8.45862 123.385 8.66062 123.277 8.89662C123.169 9.12862 123.097 9.37662 123.061 9.64062C123.025 9.90062 123.007 10.1586 123.007 10.4146V13.6486H122.125Z" fill="#5BB59A"/>
<g clip-path="url(#clip0_1_203)">
<path d="M15.64 7.64093L14.5523 6.37725C14.3443 6.13731 14.1764 5.68942 14.1764 5.3695V4.00984C14.1764 3.16205 13.4805 2.46623 12.6327 2.46623H11.2731C10.9612 2.46623 10.5053 2.29827 10.2653 2.09032L9.00164 1.00259C8.44978 0.530711 7.54601 0.530711 6.98615 1.00259L5.73046 2.09832C5.49052 2.29827 5.03463 2.46623 4.72271 2.46623H3.33906C2.49127 2.46623 1.79544 3.16205 1.79544 4.00984V5.3775C1.79544 5.68942 1.62749 6.13731 1.42754 6.37725L0.347806 7.64893C-0.116078 8.20079 -0.116078 9.09657 0.347806 9.64843L1.42754 10.9201C1.62749 11.1601 1.79544 11.6079 1.79544 11.9199V13.2875C1.79544 14.1353 2.49127 14.8311 3.33906 14.8311H4.72271C5.03463 14.8311 5.49052 14.9991 5.73046 15.207L6.99414 16.2948C7.54601 16.7667 8.44978 16.7667 9.00964 16.2948L10.2733 15.207C10.5133 14.9991 10.9612 14.8311 11.2811 14.8311H12.6407C13.4885 14.8311 14.1843 14.1353 14.1843 13.2875V11.9279C14.1843 11.6159 14.3523 11.1601 14.5603 10.9201L15.648 9.65643C16.1119 9.10457 16.1119 8.1928 15.64 7.64093ZM11.3211 7.13706L7.45803 11.0001C7.34606 11.1121 7.1941 11.1761 7.03414 11.1761C6.87418 11.1761 6.72221 11.1121 6.61024 11.0001L4.67472 9.06458C4.44278 8.83264 4.44278 8.44873 4.67472 8.21679C4.90667 7.98485 5.29057 7.98485 5.52251 8.21679L7.03414 9.72841L10.4733 6.28927C10.7052 6.05733 11.0891 6.05733 11.3211 6.28927C11.553 6.52121 11.553 6.90512 11.3211 7.13706Z" fill="#5BB59A"/>
</g>
<defs>
<clipPath id="clip0_1_203">
<rect width="16" height="16" fill="white" transform="translate(-0.000137329 0.648621)"/>
</clipPath>
</defs>
</svg>
