<svg width="98" height="18" viewBox="0 0 98 18" fill="none" xmlns="http://www.w3.org/2000/svg">
<path d="M15.9636 6.2066L11.5005 5.55797L9.5054 1.51325C9.4509 1.4025 9.36126 1.31285 9.25051 1.25836C8.97278 1.12125 8.63528 1.23551 8.49641 1.51325L6.50129 5.55797L2.03821 6.2066C1.91516 6.22418 1.80266 6.28219 1.71653 6.37008C1.6124 6.47711 1.55502 6.6211 1.557 6.77041C1.55897 6.91972 1.62015 7.06214 1.72707 7.16637L4.95618 10.3146L4.19329 14.7601C4.1754 14.8635 4.18684 14.9699 4.22632 15.0671C4.2658 15.1644 4.33173 15.2486 4.41665 15.3103C4.50156 15.3719 4.60206 15.4086 4.70674 15.4161C4.81142 15.4235 4.9161 15.4015 5.00891 15.3525L9.0009 13.2537L12.9929 15.3525C13.1019 15.4105 13.2284 15.4298 13.3497 15.4088C13.6556 15.356 13.8613 15.066 13.8085 14.7601L13.0456 10.3146L16.2747 7.16637C16.3626 7.08024 16.4206 6.96774 16.4382 6.84469C16.4857 6.53707 16.2712 6.25231 15.9636 6.2066Z" fill="#FFC000"/>
<path d="M35.9611 6.2066L31.498 5.55797L29.5029 1.51325C29.4484 1.4025 29.3588 1.31285 29.248 1.25836C28.9703 1.12125 28.6328 1.23551 28.4939 1.51325L26.4988 5.55797L22.0357 6.2066C21.9127 6.22418 21.8002 6.28219 21.714 6.37008C21.6099 6.47711 21.5525 6.6211 21.5545 6.77041C21.5565 6.91972 21.6176 7.06214 21.7246 7.16637L24.9537 10.3146L24.1908 14.7601C24.1729 14.8635 24.1843 14.9699 24.2238 15.0671C24.2633 15.1644 24.3292 15.2486 24.4141 15.3103C24.4991 15.3719 24.5996 15.4086 24.7042 15.4161C24.8089 15.4235 24.9136 15.4015 25.0064 15.3525L28.9984 13.2537L32.9904 15.3525C33.0994 15.4105 33.2259 15.4298 33.3472 15.4088C33.6531 15.356 33.8588 15.066 33.806 14.7601L33.0431 10.3146L36.2722 7.16637C36.3601 7.08024 36.4181 6.96774 36.4357 6.84469C36.4832 6.53707 36.2687 6.25231 35.9611 6.2066Z" fill="#FFC000"/>
<path d="M55.9611 6.2066L51.498 5.55797L49.5029 1.51325C49.4484 1.4025 49.3588 1.31285 49.248 1.25836C48.9703 1.12125 48.6328 1.23551 48.4939 1.51325L46.4988 5.55797L42.0357 6.2066C41.9127 6.22418 41.8002 6.28219 41.714 6.37008C41.6099 6.47711 41.5525 6.6211 41.5545 6.77041C41.5565 6.91972 41.6176 7.06214 41.7246 7.16637L44.9537 10.3146L44.1908 14.7601C44.1729 14.8635 44.1843 14.9699 44.2238 15.0671C44.2633 15.1644 44.3292 15.2486 44.4141 15.3103C44.4991 15.3719 44.5996 15.4086 44.7042 15.4161C44.8089 15.4235 44.9136 15.4015 45.0064 15.3525L48.9984 13.2537L52.9904 15.3525C53.0994 15.4105 53.2259 15.4298 53.3472 15.4088C53.6531 15.356 53.8588 15.066 53.806 14.7601L53.0431 10.3146L56.2722 7.16637C56.3601 7.08024 56.4181 6.96774 56.4357 6.84469C56.4832 6.53707 56.2687 6.25231 55.9611 6.2066Z" fill="#FFC000"/>
<path d="M75.9636 6.2066L71.5005 5.55797L69.5054 1.51325C69.4509 1.4025 69.3613 1.31285 69.2505 1.25836C68.9728 1.12125 68.6353 1.23551 68.4964 1.51325L66.5013 5.55797L62.0382 6.2066C61.9152 6.22418 61.8027 6.28219 61.7165 6.37008C61.6124 6.47711 61.555 6.6211 61.557 6.77041C61.559 6.91972 61.6201 7.06214 61.7271 7.16637L64.9562 10.3146L64.1933 14.7601C64.1754 14.8635 64.1868 14.9699 64.2263 15.0671C64.2658 15.1644 64.3317 15.2486 64.4166 15.3103C64.5016 15.3719 64.6021 15.4086 64.7067 15.4161C64.8114 15.4235 64.9161 15.4015 65.0089 15.3525L69.0009 13.2537L72.9929 15.3525C73.1019 15.4105 73.2284 15.4298 73.3497 15.4088C73.6556 15.356 73.8613 15.066 73.8085 14.7601L73.0456 10.3146L76.2747 7.16637C76.3626 7.08024 76.4206 6.96774 76.4382 6.84469C76.4857 6.53707 76.2712 6.25231 75.9636 6.2066Z" fill="#FFC000"/>
<path d="M95.9611 6.2066L91.498 5.55797L89.5029 1.51325C89.4484 1.4025 89.3588 1.31285 89.248 1.25836C88.9703 1.12125 88.6328 1.23551 88.4939 1.51325L86.4988 5.55797L82.0357 6.2066C81.9127 6.22418 81.8002 6.28219 81.714 6.37008C81.6099 6.47711 81.5525 6.6211 81.5545 6.77041C81.5565 6.91972 81.6176 7.06214 81.7246 7.16637L84.9537 10.3146L84.1908 14.7601C84.1729 14.8635 84.1843 14.9699 84.2238 15.0671C84.2633 15.1644 84.3292 15.2486 84.4141 15.3103C84.4991 15.3719 84.5996 15.4086 84.7042 15.4161C84.8089 15.4235 84.9136 15.4015 85.0064 15.3525L88.9984 13.2537L92.9904 15.3525C93.0994 15.4105 93.2259 15.4298 93.3472 15.4088C93.6531 15.356 93.8588 15.066 93.806 14.7601L93.0431 10.3146L96.2722 7.16637C96.3601 7.08024 96.4181 6.96774 96.4357 6.84469C96.4832 6.53707 96.2687 6.25231 95.9611 6.2066Z" fill="#FFC000"/>
</svg>
